<svg xmlns="http://www.w3.org/2000/svg" viewBox="0 0 750 500"><g id="freepik--background-complete--inject-155"><path d="M149.35,89.75h.29l0,0c-.52-1.11-9.81-21.16-.51-25.71,9.57-4.68,23.38,4.67,23.38,4.67s-8.7-38.23,15.9-44.44,41.89,38.6,41.89,38.6,11.42-13.93,15.94,9.59c0,0,29.63-9.56,31.91,23.32,0,0,9.85-6.13,8.74,2.88l-.23,1.38L148.84,97.22S142.63,89.51,149.35,89.75Z" style="fill:#f5f5f5;fill-rule:evenodd"></path><path d="M55.46,63.65h.13v0c-.23-.48-4.26-9.16-.22-11.14s10.13,2,10.13,2-3.77-16.57,6.89-19.26S90.54,52,90.54,52s4.95-6,6.91,4.16c0,0,12.85-4.14,13.83,10.11,0,0,4.28-2.66,3.79,1.25l-.1.6L55.24,66.89S52.55,63.54,55.46,63.65Z" style="fill:#f5f5f5;fill-rule:evenodd"></path><path d="M16.12,246.46v80.12c21.07-8.42,45.23-6.76,67.65-2.25,22.89,4.61,45.25,12,68.55,14.09,2.18.2,4.35.34,6.52.44h16.7C224.47,336.7,273,317.13,322,321.64c29.39,2.7,57.77,14,86.79,17.22h29.23c34.71-4.39,66.37-23.87,101.41-27.3,26.22-2.56,52.36,4,78.63,6.07A227.06,227.06,0,0,0,733.76,295.9l.27-49.44Z" style="fill:#ebebeb"></path><g style="opacity:0.30000000000000004"><path d="M733.57,261.8c.16.28-1.92,1.9-6.4,3.95a130.35,130.35,0,0,1-20.28,6.85c-9,2.39-20.07,4.77-33,6.95s-27.81,4.19-44.35,5.59c-8.27.67-17,1.24-26.14,1.23-2.3,0-4.63-.05-7-.2l-1.81-.12-1.74-.16-3.52-.32c-4.7-.48-9.48-1-14.31-1.68-19.34-2.51-39.66-6.35-61-8s-43.9-.51-67.16,2.43-47.26,7.57-71.93,12.33-49,9.32-72.8,11.9-47.16,3.18-69.25.75a260.39,260.39,0,0,1-31.88-5.58c-10.18-2.38-19.91-5.14-29.22-8-18.62-5.69-35.66-11.49-51.37-16a338.76,338.76,0,0,0-42.85-9.89,202.94,202.94,0,0,0-33-2.57c-18.22.24-28.17,2.84-28.37,1.94-.08-.33,2.31-1.28,7-2.61a123.22,123.22,0,0,1,21.16-3.38,180.18,180.18,0,0,1,34,.85,313.07,313.07,0,0,1,44,8.56c16,4.17,33.31,9.59,51.84,14.86s38.42,10.25,59.66,12.3,43.85,1.34,67.13-1.35,47.29-7.22,71.95-12,48.9-9.42,72.67-12.24,47.07-3.76,69.17-1.86c11,.94,21.66,2.53,31.88,4.17s20.07,3.39,29.57,4.82c4.75.74,9.42,1.36,14,1.94l3.43.38,1.69.19,1.64.14c2.17.19,4.38.28,6.57.35,8.78.21,17.35-.12,25.51-.54,16.32-.92,31.09-2.41,44-4s24-3.39,33-5.14,15.86-3.49,20.45-4.87S733.38,261.45,733.57,261.8Z" style="fill:#fff"></path></g><path d="M162.06,320.87c-5.07-2.75-11.24-2.79-16.86-1.45a11,11,0,0,0-4.57,2,4.72,4.72,0,0,0-1.83,4.42c.42,2.84,6.61,3.88,10.17,4.17a38.42,38.42,0,0,0,10.61-1.05,10.8,10.8,0,0,0,3.58-1.19,3.76,3.76,0,0,0,1.94-3.07C165.08,323,163.56,321.68,162.06,320.87Z" style="fill:#fff"></path><path d="M642.08,292.84c-5.08-2.74-11.25-2.78-16.86-1.44a11.25,11.25,0,0,0-4.58,2,4.72,4.72,0,0,0-1.82,4.42c.41,2.85,6.61,3.89,10.16,4.17a38.11,38.11,0,0,0,10.62-1,10.86,10.86,0,0,0,3.58-1.18,3.8,3.8,0,0,0,1.93-3.07C645.1,295,643.58,293.65,642.08,292.84Z" style="fill:#fff"></path><path d="M135.31,312.88a13.2,13.2,0,0,0-9.25-.79,6.13,6.13,0,0,0-2.51,1.08,2.6,2.6,0,0,0-1,2.43c.23,1.56,3.63,2.13,5.58,2.29a20.83,20.83,0,0,0,5.82-.58,6.17,6.17,0,0,0,2-.65A2.07,2.07,0,0,0,137,315,2.71,2.71,0,0,0,135.31,312.88Z" style="fill:#fff"></path><path d="M358.08,336.45c-5.07-3.65-11.24-3.7-16.85-1.92a10,10,0,0,0-4.58,2.63,7.35,7.35,0,0,0-1.82,5.87c.41,3.78,6.61,5.17,10.16,5.55s7.12-.46,10.61-1.4a8.89,8.89,0,0,0,3.58-1.58,5.36,5.36,0,0,0,1.94-4.08A6.49,6.49,0,0,0,358.08,336.45Z" style="fill:#e0e0e0"></path><path d="M643.51,328.74c-5.08-3.65-11.25-3.7-16.86-1.92a10,10,0,0,0-4.58,2.63,7.35,7.35,0,0,0-1.82,5.87c.41,3.78,6.61,5.17,10.16,5.55s7.12-.46,10.62-1.4a9,9,0,0,0,3.58-1.58,5.39,5.39,0,0,0,1.93-4.08A6.5,6.5,0,0,0,643.51,328.74Z" style="fill:#e0e0e0"></path><path d="M325.51,332.36a7.17,7.17,0,0,0-5-.44,3.5,3.5,0,0,0-1.37.59,1.4,1.4,0,0,0-.54,1.33c.12.85,2,1.16,3,1.24a11.38,11.38,0,0,0,3.18-.31,3.38,3.38,0,0,0,1.07-.36,1.09,1.09,0,0,0,.57-.91A1.45,1.45,0,0,0,325.51,332.36Z" style="fill:#e0e0e0"></path><path d="M380.22,344.45a7.17,7.17,0,0,0-5-.43,3.29,3.29,0,0,0-1.37.59,1.43,1.43,0,0,0-.54,1.32c.12.85,2,1.16,3,1.25a11.74,11.74,0,0,0,3.17-.32,3.28,3.28,0,0,0,1.07-.35,1.14,1.14,0,0,0,.58-.92A1.48,1.48,0,0,0,380.22,344.45Z" style="fill:#e0e0e0"></path><path d="M670.06,300.7a13.21,13.21,0,0,0-9.25-.79A6,6,0,0,0,658.3,301a2.57,2.57,0,0,0-1,2.42c.23,1.56,3.62,2.13,5.57,2.29a20.9,20.9,0,0,0,5.83-.58,5.6,5.6,0,0,0,2-.65,2.05,2.05,0,0,0,1.06-1.68A2.7,2.7,0,0,0,670.06,300.7Z" style="fill:#fff"></path><polygon points="175.91 467.76 37.59 467.76 45.7 455.66 184.02 455.66 175.91 467.76" style="fill:#e0e0e0"></polygon><polygon points="436.41 467.76 298.09 467.76 306.21 455.66 444.53 455.66 436.41 467.76" style="fill:#e0e0e0"></polygon><polygon points="696.92 467.76 558.6 467.76 566.71 455.66 705.04 455.66 696.92 467.76" style="fill:#e0e0e0"></polygon><path d="M479.59,104.16a29.2,29.2,0,0,0-3.42-7.09,9.81,9.81,0,0,0-6.44-4.19c-2.62-.32-5.52,1.09-6.37,3.58-.37-5.62-1.17-11.38-4-16.26s-8.06-8.71-13.68-8.36c-5.3.32-9.83,4.26-12.35,8.93S430,90.8,429.13,96c-2-2.46-6.25-1.69-8.34.7s-2.63,5.73-3.08,8.88h71.6Z" style="fill:#ebebeb"></path><path d="M299.28,125.2a10.54,10.54,0,0,0-1.27-2.64,3.61,3.61,0,0,0-2.39-1.55,2.21,2.21,0,0,0-2.36,1.33,13.88,13.88,0,0,0-1.48-6,5.77,5.77,0,0,0-5.08-3.1,6,6,0,0,0-4.59,3.31,17.83,17.83,0,0,0-1.56,5.67c-.75-.91-2.32-.62-3.1.26a6.21,6.21,0,0,0-1.14,3.3h26.58Z" style="fill:#ebebeb"></path><path d="M32.3,175,115,81.53H129.5l32.19-27.14,15.78,4.42,21.46,26.51L210,82.8,314.44,185.68s81.33,58.44,83.22,59.7c.84.56-135.66-1.78-213.71-.66-98.25,1.42-166.14,5.76-166.14,5.76Z" style="fill:#ebebeb;fill-rule:evenodd"></path><path d="M667.16,83.6h-.29l0,0c.53-1.12,9.81-21.16.51-25.71C657.83,53.18,644,62.53,644,62.53s8.7-38.23-15.9-44.44-41.89,38.6-41.89,38.6-11.42-13.93-15.94,9.59c0,0-29.63-9.56-31.9,23.32,0,0-9.86-6.13-8.75,2.88l.23,1.38,137.8-2.79S673.87,83.36,667.16,83.6Z" style="fill:#f5f5f5;fill-rule:evenodd"></path><path d="M452.37,192.29l75.39-67.72h11.78l26.1-22,12.8,3.59,17.4,21.49,9-2L689.51,209s22.51,20.91,24,21.94c.68.45-63.11,1.81-126.41,2.73-79.67,1.14-213.9,12.09-213.9,12.09Z" style="fill:#ebebeb;fill-rule:evenodd"></path><path d="M352.49,63.59a29.38,29.38,0,0,0-3.42-7.09,9.81,9.81,0,0,0-6.44-4.19c-2.62-.32-5.51,1.09-6.37,3.58-.37-5.61-1.17-11.38-4-16.26s-8.06-8.7-13.68-8.36c-5.3.32-9.83,4.26-12.35,8.93s-3.39,10-4.22,15.27c-2-2.46-6.25-1.69-8.34.7s-2.63,5.74-3.07,8.88h71.59Z" style="fill:#ebebeb"></path></g><g id="freepik--Floor--inject-155"><path d="M727,411.43c0,.14-159.24.26-355.63.26s-355.67-.12-355.67-.26,159.21-.26,355.67-.26S727,411.29,727,411.43Z" style="fill:#263238"></path><path d="M727,401.56c0,.15-159.24.26-355.63.26s-355.67-.11-355.67-.26,159.21-.26,355.67-.26S727,401.42,727,401.56Z" style="fill:#263238"></path></g><g id="freepik--Plants--inject-155"><path d="M350.93,387.74a12.75,12.75,0,0,1,1.49,2l3.45,4.94c1.36,1.92,2.63,3.63,3.54,4.88a12.49,12.49,0,0,1,1.41,2.06,10.92,10.92,0,0,1-1.7-1.84c-1-1.19-2.31-2.87-3.68-4.79s-2.53-3.72-3.33-5.05A10.94,10.94,0,0,1,350.93,387.74Z" style="fill:#263238"></path><path d="M361.8,387.47c.16,0-.14,3.22.25,7.14s1.25,7,1.1,7.06a6.88,6.88,0,0,1-.72-2,30,30,0,0,1-.9-5,30.5,30.5,0,0,1-.06-5.1A7.73,7.73,0,0,1,361.8,387.47Z" style="fill:#263238"></path><path d="M371.31,386.33a57.47,57.47,0,0,0-3.25,7.39,56.27,56.27,0,0,0-1.63,7.91,7.67,7.67,0,0,1,0-2.39,26.25,26.25,0,0,1,1.14-5.68,25.92,25.92,0,0,1,2.36-5.28A8.29,8.29,0,0,1,371.31,386.33Z" style="fill:#263238"></path><path d="M35.08,321.45a14.88,14.88,0,0,1,1.49,2L40,328.41c1.36,1.91,2.63,3.63,3.54,4.87A12.58,12.58,0,0,1,45,335.35a11.45,11.45,0,0,1-1.7-1.84c-1-1.19-2.31-2.88-3.68-4.8s-2.53-3.72-3.33-5A10.83,10.83,0,0,1,35.08,321.45Z" style="fill:#263238"></path><path d="M46,321.19c.16,0-.14,3.22.24,7.14s1.26,7,1.11,7.05a6.88,6.88,0,0,1-.72-2,30.83,30.83,0,0,1-1-10.12A7.18,7.18,0,0,1,46,321.19Z" style="fill:#263238"></path><path d="M55.46,320a55.67,55.67,0,0,0-3.25,7.4,56.64,56.64,0,0,0-1.64,7.91,8.44,8.44,0,0,1,0-2.4A26.11,26.11,0,0,1,54.07,322,8.53,8.53,0,0,1,55.46,320Z" style="fill:#263238"></path><path d="M398.84,330.81a12.75,12.75,0,0,1,1.49,2l3.45,4.94c1.36,1.92,2.63,3.63,3.54,4.88a13.35,13.35,0,0,1,1.41,2.06,10.92,10.92,0,0,1-1.7-1.84c-1-1.19-2.31-2.87-3.68-4.8s-2.53-3.72-3.33-5A11.25,11.25,0,0,1,398.84,330.81Z" style="fill:#263238"></path><path d="M409.71,330.54c.16,0-.14,3.22.25,7.14s1.25,7,1.1,7.06a6.88,6.88,0,0,1-.72-2,30,30,0,0,1-.9-5,30.5,30.5,0,0,1-.06-5.1A7.73,7.73,0,0,1,409.71,330.54Z" style="fill:#263238"></path><path d="M419.22,329.4a38.32,38.32,0,0,0-4.88,15.3,7.67,7.67,0,0,1,0-2.39,26.25,26.25,0,0,1,1.14-5.68,25.92,25.92,0,0,1,2.36-5.28A8.29,8.29,0,0,1,419.22,329.4Z" style="fill:#263238"></path><path d="M611.79,357.51a13.56,13.56,0,0,1,1.49,2c1,1.42,2.16,3.09,3.44,4.94s2.63,3.63,3.55,4.87a13.67,13.67,0,0,1,1.41,2.07,10.92,10.92,0,0,1-1.7-1.84c-1-1.19-2.31-2.87-3.68-4.8s-2.53-3.72-3.33-5A11.25,11.25,0,0,1,611.79,357.51Z" style="fill:#263238"></path><path d="M622.66,357.24c.16,0-.14,3.22.24,7.14s1.26,7,1.1,7.06a7.5,7.5,0,0,1-.71-2,30,30,0,0,1-.9-5,29.46,29.46,0,0,1-.06-5.1A6.78,6.78,0,0,1,622.66,357.24Z" style="fill:#263238"></path><path d="M678.49,387.53a12.36,12.36,0,0,1,1.5,2l3.44,4.95c1.37,1.91,2.63,3.63,3.54,4.87a13.15,13.15,0,0,1,1.42,2.07,11.75,11.75,0,0,1-1.71-1.84c-1-1.19-2.3-2.88-3.67-4.8s-2.54-3.72-3.33-5.05A11.07,11.07,0,0,1,678.49,387.53Z" style="fill:#263238"></path><path d="M689.37,387.27c.16,0-.14,3.21.24,7.13s1.26,7,1.1,7.06a7.26,7.26,0,0,1-.72-2,31.09,31.09,0,0,1-.9-5,29.32,29.32,0,0,1-.05-5.1A6.67,6.67,0,0,1,689.37,387.27Z" style="fill:#263238"></path><path d="M698.87,386.12a57.47,57.47,0,0,0-3.25,7.39,56,56,0,0,0-1.63,7.92,8.44,8.44,0,0,1,0-2.4,26,26,0,0,1,1.13-5.67,26.6,26.6,0,0,1,2.36-5.29A8.59,8.59,0,0,1,698.87,386.12Z" style="fill:#263238"></path><path d="M110.52,366.48a6.55,6.55,0,0,1,3.84,3.43,11.63,11.63,0,0,1,1.07,5.14c0,3.42-1.49,7.05-3.23,10-3.14-2.14-4.31-6.38-4.76-8.57-.73-3.47.07-10.16,3.08-10" style="fill:#FF725E"></path><path d="M116.16,390.22a5.62,5.62,0,0,1,1.17-5.52,7.44,7.44,0,0,1,5.26-2.35,3.09,3.09,0,0,1,2.52.79,2.39,2.39,0,0,1,.33,2.41,4.81,4.81,0,0,1-1.58,2c-2.28,1.84-4.82,3.2-7.7,2.7" style="fill:#FF725E"></path><path d="M113.75,401a3.39,3.39,0,0,1,0-.7c0-.5.07-1.15.12-1.92a19.68,19.68,0,0,1,1.22-6.21,12,12,0,0,1,3.75-5.07,8.26,8.26,0,0,1,1.66-1c.2-.09.38-.14.49-.19l.17,0a12.76,12.76,0,0,0-2.21,1.35,12.51,12.51,0,0,0-3.63,5,21.57,21.57,0,0,0-1.28,6.14c-.07.8-.14,1.45-.19,1.9A3.57,3.57,0,0,1,113.75,401Z" style="fill:#263238"></path><path d="M110.36,371.63a.94.94,0,0,1,.07.3c0,.22.1.51.16.86.13.75.3,1.84.51,3.19.41,2.69.92,6.41,1.39,10.54s.82,7.88,1,10.59c.11,1.36.18,2.46.23,3.22,0,.36,0,.65,0,.87a1.23,1.23,0,0,1,0,.31,1,1,0,0,1-.05-.3q0-.34-.09-.87c-.07-.79-.18-1.88-.3-3.21-.26-2.71-.63-6.45-1.1-10.58s-1-7.85-1.33-10.55c-.17-1.32-.32-2.41-.43-3.19,0-.36-.08-.65-.11-.87A1.44,1.44,0,0,1,110.36,371.63Z" style="fill:#263238"></path><path d="M111.49,392.85a13.12,13.12,0,0,0-8.26-8.7c-1-.34-2.27-.49-3,.31s-.37,2,.13,3a11.21,11.21,0,0,0,11.07,5.7" style="fill:#FF725E"></path><path d="M104.07,387.29a3.83,3.83,0,0,1,.64.19c.2.07.45.16.72.28a8.61,8.61,0,0,1,.93.45,11.29,11.29,0,0,1,1.08.62,13.55,13.55,0,0,1,1.17.84,13.9,13.9,0,0,1,2.32,2.34,14.18,14.18,0,0,1,1.67,2.82,11.3,11.3,0,0,1,.5,1.35,10,10,0,0,1,.32,1.21,9.4,9.4,0,0,1,.17,1,6.24,6.24,0,0,1,.07.77,2.93,2.93,0,0,1,0,.67s-.07-1-.41-2.42c-.1-.37-.19-.77-.34-1.18a12.39,12.39,0,0,0-.52-1.32,14,14,0,0,0-1.66-2.77,15.14,15.14,0,0,0-2.26-2.32,13.07,13.07,0,0,0-1.14-.83,11.62,11.62,0,0,0-1-.65C105,387.63,104.05,387.34,104.07,387.29Z" style="fill:#263238"></path></g><g id="freepik--Mountains--inject-155"><polyline points="169.9 167.14 164.04 150.93 159.42 163.93 155.78 154.52 155.75 154 149.88 137.78 143.22 156.52 143 156.4 139.79 139.9 137.97 153.74 130.86 149.97 126.22 126.11 123.59 146.12 122.83 145.72 121.28 139.66 121.23 138.78 114.73 111.67 109.51 138.67 94.26 130.59 89.62 106.74 86.77 128.46 80.27 101.38 74.83 129.56 73.65 129.64 70.88 118.78 70.83 117.91 64.33 90.79 56.62 130.71 53.1 130.93 48.51 107.31 45.47 130.48 39.56 105.84 34.49 132.09 28.14 132.49 25.47 122.02 25.4 120.77 16.12 82.1 16.12 236.11 279.64 241.2 211.64 192.73 211 192.39 209.87 189.49 207.27 190.42 206.97 190.26 209.84 188.96 203.98 172.75 199.21 186.16 196.34 184.63 191.02 163.75 185.18 167.04 190.97 162.88 184.46 135.76 177 174.4 171.39 171.42 169.93 167.67" style="fill:#455a64;fill-rule:evenodd"></polyline><g style="opacity:0.30000000000000004"><polyline points="169.9 167.14 164.04 150.93 159.42 163.93 155.78 154.52 155.75 154 149.88 137.78 143.22 156.52 143 156.4 139.79 139.9 137.97 153.74 130.86 149.97 126.22 126.11 123.59 146.12 122.83 145.72 121.28 139.66 121.23 138.78 114.73 111.67 109.51 138.67 94.26 130.59 89.62 106.74 86.77 128.46 80.27 101.38 74.83 129.56 73.65 129.64 70.88 118.78 70.83 117.91 64.33 90.79 56.62 130.71 53.1 130.93 48.51 107.31 45.47 130.48 39.56 105.84 34.49 132.09 28.14 132.49 25.47 122.02 25.4 120.77 16.12 82.1 16.15 236.01 279.64 241.2 211.64 192.73 211 192.39 209.87 189.49 207.27 190.42 206.97 190.26 209.84 188.96 203.98 172.75 199.21 186.16 196.34 184.63 191.02 163.75 185.18 167.04 190.97 162.88 184.46 135.76 177 174.4 171.39 171.42 169.93 167.67" style="fill-rule:evenodd"></polyline></g><polyline points="595.07 172.91 600.38 158.21 604.57 169.99 607.87 161.47 607.9 160.99 613.21 146.3 619.25 163.28 619.45 163.17 622.36 148.22 624 160.76 630.46 157.34 634.66 135.72 637.04 153.86 637.73 153.49 639.13 148 639.18 147.2 645.07 122.63 649.8 147.1 663.63 139.78 667.83 118.17 670.41 137.85 676.3 113.3 681.24 138.85 682.3 138.92 684.81 129.08 684.85 128.28 690.75 103.71 697.74 139.88 700.92 140.09 705.09 118.68 707.84 139.68 713.2 117.35 717.79 141.14 723.54 141.5 725.97 132.01 726.03 130.88 734.44 95.83 733.57 237.5 495.62 240.03 557.25 196.1 557.83 195.79 558.85 193.16 561.2 194 561.48 193.86 558.87 192.68 564.19 177.99 568.51 190.14 571.11 188.76 575.93 169.83 581.22 172.82 575.98 169.04 581.88 144.47 588.64 179.48 593.73 176.79 595.04 173.38" style="fill:#455a64;fill-rule:evenodd"></polyline><g style="opacity:0.30000000000000004"><polyline points="595.07 172.91 600.38 158.21 604.57 169.99 607.87 161.47 607.9 160.99 613.21 146.3 619.25 163.28 619.45 163.17 622.36 148.22 624 160.76 630.46 157.34 634.66 135.72 637.04 153.86 637.73 153.49 639.13 148 639.18 147.2 645.07 122.63 649.8 147.1 663.63 139.78 667.83 118.17 670.41 137.85 676.3 113.3 681.24 138.85 682.3 138.92 684.81 129.08 684.85 128.28 690.75 103.71 697.74 139.88 700.92 140.09 705.09 118.68 707.84 139.68 713.2 117.35 717.79 141.14 723.54 141.5 725.97 132.01 726.03 130.88 734.44 95.83 733.57 237.5 495.62 240.03 557.25 196.1 557.83 195.79 558.85 193.16 561.2 194 561.48 193.86 558.87 192.68 564.19 177.99 568.51 190.14 571.11 188.76 575.93 169.83 581.22 172.82 575.98 169.04 581.88 144.47 588.64 179.48 593.73 176.79 595.04 173.38" style="fill-rule:evenodd"></polyline></g><polygon points="608.67 205.01 603.67 182.32 599.44 197.41 596.99 189.75 582.7 227.85 608.67 226.67 608.67 205.01" style="fill:#263238;fill-rule:evenodd"></polygon><polygon points="675.1 222.67 669.88 211.94 662.88 208.37 668.99 209.56 661.09 190.17 657.34 188.61 660.6 188.61 650.01 161.56 642.92 190.17 650.42 184.22 650.66 187.53 642.92 192.11 642.92 193.2 651.07 188.61 642.36 195.44 635.49 225.11 675.1 222.67" style="fill:#263238;fill-rule:evenodd"></polygon><polygon points="486.04 236.17 483.96 231.88 481.15 230.45 483.6 230.93 480.44 223.17 478.94 222.54 480.24 222.54 476.01 211.72 473.17 223.17 476.17 220.79 476.27 222.11 473.17 223.95 473.17 224.38 476.43 222.54 472.94 225.28 470.2 237.15 486.04 236.17" style="fill:#263238;fill-rule:evenodd"></polygon><polygon points="633.75 225.2 627.53 211.21 618.57 206.84 618.36 205.22 626.39 208.8 626.07 206.93 618.57 203.18 625.5 204.97 613.85 173.28 610.39 188.61 614.75 187.62 610.43 188.96 609.77 193.33 614.34 189.49 614.42 190.43 609.72 193.93 603.74 226.87 633.75 225.2" style="fill:#263238;fill-rule:evenodd"></polygon><polygon points="705.67 216.69 699.46 202.71 690.5 198.34 690.28 196.72 698.32 200.3 697.99 198.42 690.5 194.68 697.42 196.47 685.77 164.78 682.32 180.11 686.67 179.12 682.35 180.46 681.7 184.83 686.26 180.99 686.35 181.92 681.64 185.43 675.66 218.37 705.67 216.69" style="fill:#263238;fill-rule:evenodd"></polygon><polygon points="578.71 226.87 569.82 195.1 566.58 210.99 570.46 213.19 566.58 211.49 563.07 227.43 578.71 226.87" style="fill:#263238;fill-rule:evenodd"></polygon><polygon points="734.03 200.07 726.64 172.01 723.4 187.89 726.83 185.15 723.4 188.4 719.89 204.34 734.03 200.07" style="fill:#263238;fill-rule:evenodd"></polygon><polygon points="563.25 225.84 557.29 223.44 538.72 227.85 524.67 227.85 517.18 231.08 563.07 227.43 563.25 225.84" style="fill:#263238;fill-rule:evenodd"></polygon><path d="M694.1,207.52H693l-11.38,4.08-56.33,3.63-5.92,2.48h-5.69l-10.92,5.54c-69.17,7.24-151.59,13.61-230,14-144.62.79-297.62-40.2-356.66-59.07v72L734,249.73v-53Z" style="fill:#263238;fill-rule:evenodd"></path><polygon points="170.92 214.34 174.64 191.39 179.72 206.19 181.72 198.4 198.13 235.55 172.13 235.97 170.92 214.34" style="fill:#263238;fill-rule:evenodd"></polygon><polygon points="137.86 206.79 128.77 200.5 137.16 204.59 137.1 203.5 136.99 201.56 128.31 173.43 119.26 201.09 122.51 200.89 118.86 202.67 112.06 222.52 118.09 220.96 111.3 224.95 106.7 235.97 146.37 235.98 137.86 206.79" style="fill:#263238;fill-rule:evenodd"></polygon><polygon points="295.09 237.93 296.93 233.52 299.65 231.93 297.24 232.55 299.95 224.61 301.42 223.9 300.12 223.98 303.74 212.91 307.21 224.17 304.08 221.97 304.06 223.3 307.25 224.94 307.28 225.38 303.92 223.74 307.56 226.26 310.96 237.94 295.09 237.93" style="fill:#263238;fill-rule:evenodd"></polygon><polygon points="148.12 235.96 153.54 221.62 162.24 216.71 162.36 215.08 154.54 219.14 154.76 217.25 162.03 213.06 155.22 215.27 165.07 182.92 169.38 198.01 164.98 197.28 169.37 198.36 170.26 202.68 165.49 199.13 165.46 200.07 170.35 203.28 178.17 235.79 148.12 235.96" style="fill:#263238;fill-rule:evenodd"></polygon><polygon points="314.36 243.01 319.01 230.7 326.47 226.5 326.57 225.1 319.87 228.58 320.06 226.96 326.29 223.36 320.45 225.26 328.89 197.51 332.59 210.46 328.82 209.84 332.58 210.76 333.35 214.47 329.26 211.42 329.23 212.22 333.43 214.98 340.13 242.86 314.36 243.01" style="fill:#263238;fill-rule:evenodd"></polygon><polygon points="452.51 212.19 452.43 211.67 451.66 207.94 451.67 207.64 447.95 194.63 439.46 222.52 445.33 220.62 439.06 224.24 438.88 225.86 438.01 228 433.34 240.37 459.25 240.22 452.51 212.19" style="fill:#263238;fill-rule:evenodd"></polygon><polygon points="439 224.2 438.93 223.89 438.32 221.62 438.33 221.44 435.4 213.53 428.7 230.48 433.33 229.32 428.39 231.52 428.24 232.51 427.55 233.81 423.87 241.32 444.31 241.23 439 224.2" style="fill:#263238;fill-rule:evenodd"></polygon><polygon points="98.08 182.01 97.98 181.42 97.09 177.09 92.7 176.02 97.1 176.74 92.79 161.65 82.94 194 89.75 191.79 82.48 195.99 82.26 197.88 90.08 193.82 89.96 195.44 81.26 200.35 75.84 214.7 105.89 214.53 98.08 182.01" style="fill:#263238;fill-rule:evenodd"></polygon><polygon points="202.06 237.62 209.15 205.36 213.28 221.02 209.53 223.45 213.31 221.52 217.7 237.22 202.06 237.62" style="fill:#263238;fill-rule:evenodd"></polygon><polygon points="29.61 199.84 35.86 152.69 40.41 175.79 36.72 179.26 40.45 176.54 45.27 199.7 29.61 199.84" style="fill:#263238;fill-rule:evenodd"></polygon><polygon points="45.75 229.81 52.84 197.55 56.96 213.21 53.39 210.67 56.99 213.71 61.39 229.41 45.75 229.81" style="fill:#263238;fill-rule:evenodd"></polygon><polygon points="219.91 236.14 225.74 233.38 244.52 236.65 258.55 235.78 266.2 238.55 220.19 237.72 219.91 236.14" style="fill:#263238;fill-rule:evenodd"></polygon></g><g id="freepik--Sun--inject-155"><circle cx="387.86" cy="129.82" r="64.18" transform="translate(196.39 491.25) rotate(-80.59)" style="fill:#FF725E"></circle><g style="opacity:0.9"><circle cx="387.86" cy="129.82" r="64.18" transform="translate(196.39 491.25) rotate(-80.59)" style="fill:#fff"></circle></g><circle cx="387.86" cy="129.82" r="57.24" transform="translate(117.23 436.5) rotate(-67.08)" style="fill:#FF725E"></circle><g style="opacity:0.6000000000000001"><circle cx="387.86" cy="129.82" r="57.24" transform="translate(117.23 436.5) rotate(-67.08)" style="fill:#fff"></circle></g><circle cx="387.86" cy="129.82" r="47.63" transform="translate(196.7 491.41) rotate(-80.64)" style="fill:#FF725E"></circle><g style="opacity:0.30000000000000004"><circle cx="387.86" cy="129.82" r="47.63" transform="translate(196.7 491.41) rotate(-80.64)" style="fill:#fff"></circle></g><circle cx="387.86" cy="129.82" r="38.13" transform="translate(116.47 435.83) rotate(-66.94)" style="fill:#FF725E"></circle></g><g id="freepik--character-2--inject-155"><path d="M502.81,352.82s1.48,34.31,1.33,40.53-6.86,49.83-6.86,49.83l-11.44.22s-.82-26.49-1.37-34.08.15-14.5,0-17-5.69-27.68-6.77-32.11-1.37-5.91-2.55-8.27-3.64-9.21-3.85-11.72c-.78-9.62,3.28-15.6,3.28-15.6L497,341Z" style="fill:#263238"></path><polygon points="497.54 444.49 499.24 430.25 484.76 430.96 485.44 444.65 489.83 449.19 496.3 448 497.54 444.49" style="fill:#263238"></polygon><path d="M510.3,460.12a28.65,28.65,0,0,1-8.88,0,104.92,104.92,0,0,1-12-3.67c-2.15-.75-8.64-.72-8.84-3s4.85-10.08,4.85-10.08.76,2.56,3,2.72a42.64,42.64,0,0,0,6.71-.49s2.21-2.7,3.5-2.67.45,3.62.45,3.62,2.63,4.73,4.66,5.92,2.05,1.86,4.54,2.21a6.73,6.73,0,0,1,3.59,1.4s.92,2.18.24,2.85A6.83,6.83,0,0,1,510.3,460.12Z" style="fill:#455a64"></path><path d="M512.17,458.92a5.12,5.12,0,0,1-1.87,1.24,28.46,28.46,0,0,1-8.88,0,104.92,104.92,0,0,1-12-3.67c-2.14-.75-8.64-.71-8.83-3a3.74,3.74,0,0,1,.31-1.87s6.29,2.49,9.43,2.8,9.57,3.27,13.11,3.65a43.4,43.4,0,0,0,7.63,0l1.23-.49C512.4,458.1,512.54,458.48,512.17,458.92Z" style="fill:#e0e0e0"></path><path d="M503,451.79a8.49,8.49,0,0,1-.56,1.11c-.4.57-.91.84-.87.89a2.07,2.07,0,0,0,1.43-2Z" style="fill:#fff"></path><path d="M501.21,449.75a7.7,7.7,0,0,1-.77,1.28,7.55,7.55,0,0,1-1.15,1,2.59,2.59,0,0,0,1.92-2.23Z" style="fill:#fff"></path><path d="M500,447.85c-.05,0-.39.41-.91.85s-1,.72-1,.77a2.3,2.3,0,0,0,1.11-.61A2.23,2.23,0,0,0,500,447.85Z" style="fill:#fff"></path><path d="M487.15,451.14a2.93,2.93,0,0,0,.82.27c.51.13,1.23.28,2,.41s1.53.2,2.06.24a3.19,3.19,0,0,0,.85,0c0-.06-1.29-.19-2.88-.45S487.17,451.09,487.15,451.14Z" style="fill:#fff"></path><path d="M566.68,355.27s7.92-3.22,8.47-5.28,1.59-3.73,3.08-2.23,2.21,3.79-.12,6.58l-7.85,5-3.58-2.93Z" style="fill:#263238"></path><path d="M581.1,367.8a7.58,7.58,0,0,1-2.61-2.67,7.33,7.33,0,0,1-.25-4.35c.29-1.95.4-5.15-1.93-6a1.29,1.29,0,0,1-.88-1.55,1.27,1.27,0,0,1,1.55-.88c2.68,1,3.91,3.64,3.94,6.35,0,1.43-.4,2.83-.39,4.25,0,1.24.91,2,1.84,2.65a1.3,1.3,0,0,1,.46,1.73,1.27,1.27,0,0,1-1.73.45Z" style="fill:#263238"></path><path d="M560.51,373a10.74,10.74,0,0,0,7.23-3.82,7.35,7.35,0,0,0,1.2-7.27c-1.06-2.54-3.44-3.6-6.05-3.78-3.35-.23-6.78,0-10.13.11q-6,.17-12,.48c-2.17.11-2.16-3.25,0-3.36q6.13-.33,12.29-.49c2-.06,4-.1,6-.13a31.8,31.8,0,0,1,5.52.23,9.41,9.41,0,0,1,7.59,6.05,10.52,10.52,0,0,1-1.39,9.66,14.27,14.27,0,0,1-10.28,5.68,1.69,1.69,0,0,1-1.69-1.68,1.73,1.73,0,0,1,1.69-1.68Z" style="fill:#e0e0e0"></path><path d="M564.55,473.47l2.16-18.36-1.09,18.46Zm12.66-20.22,8.51,16.48-.87.42Zm-21.93,0h0l11.52-16.12.27.2-11.73,15.84L546,466.36Zm1-1.43-1,1.44-9.55,12.89Zm29.65-5-14.6-10.43.4-.53,14.91,11.47,13.87,9.9-13.85-9.89,13.49,10.38Zm-19.25,8.29,2-17.25-2.06,17.81Zm10.5-1.86-7.12-15.78,7.41,16.33Zm-44-1.88,32.09-16-32.07,16Zm55.85-14.91L572.48,434l16.61,2.44-16.54-2.92,17.67,3.09L608,439.24l-.08.54Zm-60.23-3.84,35.86,0H528.86Zm43.33-2.4,18-4.77,16.42-5.14-16.41,5.13,16.62-4.4-17.31,4.62L572.42,431Zm-25.14-5.93-15.88-5.46L547,424.28l-15.7-5.88,16.77,6.25,17,5.84-.18.5Zm23.52,3.7,13.82-12.23,12.3-12.3-12.3,12.3,13-11.53L584,416.13l-12.68,12.68Zm-17.44-13.57-11.48-12,11.44,11.92-11.44-11.92,11.44,11.92L541.92,402.2,554,415.35l12.46,13-.32.3Zm.93,1,0,0Zm8.61-9.48-3.21-13.25,3.1,12.79-3.1-12.79,3.08,12.71-3-12.73,3.94,16.65,4.42,18.22-.15,0Zm1,4.18-.2-.8Zm5.59,17.38,6.36-20.36,4.22-13.91-4.12,13.6,4.12-13.6-4.1,13.55L580,393.24l-5.17,16.63-5.35,17.65Zm5.38-17.11.15-.48Z" style="fill:#e0e0e0"></path><path d="M528.16,433.19a40.51,40.51,0,1,1,40.51,40.51A40.55,40.55,0,0,1,528.16,433.19Zm2,0a38.55,38.55,0,1,0,38.55-38.54A38.59,38.59,0,0,0,530.12,433.19Z" style="fill:#e0e0e0"></path><path d="M525.52,433.19a43.15,43.15,0,1,1,43.15,43.15A43.2,43.2,0,0,1,525.52,433.19Zm2.6,0a40.55,40.55,0,1,0,40.55-40.54A40.6,40.6,0,0,0,528.12,433.19Z" style="fill:#263238"></path><path d="M530.06,433.32s0-.21,0-.62,0-1,.08-1.84a39.85,39.85,0,0,1,1.11-7,38.66,38.66,0,0,1,14.07-21.19,38.48,38.48,0,0,1,16.21-7.18,38.45,38.45,0,0,1,45.53,37.79,38.45,38.45,0,0,1-45.54,37.8,37.81,37.81,0,0,1-8.85-2.79,38.43,38.43,0,0,1-7.35-4.39,38.72,38.72,0,0,1-14.07-21.2,39.71,39.71,0,0,1-1.11-7c-.07-.8-.06-1.42-.08-1.83s0-.63,0-.63,0,.85.05,2.47a38,38,0,0,0,1,7,38.61,38.61,0,0,0,14.05,21.36,37.14,37.14,0,0,0,7.39,4.44,37.73,37.73,0,0,0,8.91,2.83,38.75,38.75,0,1,0,0-76.16,38.72,38.72,0,0,0-16.3,7.27,39.17,39.17,0,0,0-9.81,11,38.65,38.65,0,0,0-4.24,10.33,38,38,0,0,0-1,7C530,432.47,530.06,433.32,530.06,433.32Z" style="fill:#263238"></path><polygon points="483.76 380.81 478.52 357.66 474.43 357.66 479.41 382.09 483.76 380.81" style="fill:#e0e0e0"></polygon><polygon points="548.11 374.18 551.68 377.18 565.49 358.41 561.92 355.41 548.11 374.18" style="fill:#e0e0e0"></polygon><path d="M442.41,472.9l2.16-18.36L443.49,473Zm12.66-20.23-7.93-15.37,7.93,15.37L448,436.9l7.41,16.33,8.22,15.93-.87.42Zm-21.92.05h0l11.52-16.13.28.21L433.2,452.65l-9.38,13.13Zm1-1.43-1,1.44-9.55,12.89Zm29.66-5-14.61-10.43.4-.54,14.91,11.48,13.87,9.9-13.85-9.89L478,457.15Zm-19.26,8.29,2-17.25-2.06,17.81Zm-33.46-3.74,32.08-16-32.07,16Zm55.37-15-16.11-2.52,16.11,2.52L450.42,433l17.66,3.09,17.71,2.76-.06.38Zm-59.75-3.76,35.85,0H406.73Zm43.33-2.4,18-4.78,16.42-5.13-16.41,5.13,16.62-4.4-17.31,4.62-17.12,5.35Zm-25.15-5.93L409,418.26l15.86,5.45-15.7-5.89L426,424.08l17,5.84-.18.49Zm23.52,3.7,13.82-12.23,12.31-12.31-12.3,12.31,13-11.53-13.41,11.9L449.2,428.24ZM431,413.85l-11.48-12L431,413.81l-11.44-11.92L431,413.81l-11.16-12.18,12.09,13.14,12.46,13-.32.31Zm.94,1-.05-.05Zm8.6-9.49-3.21-13.24,3.1,12.78-3.09-12.78,3.07,12.7-3-12.72,3.95,16.64,4.41,18.23-.15,0Zm1,4.18-.19-.8Zm5.6,17.38,6.36-20.35,4.21-13.91-4.11,13.59v0L447.33,427Zm10.69-34.22-5.17,16.63Z" style="fill:#e0e0e0"></path><path d="M406,432.62a40.5,40.5,0,1,1,40.5,40.5A40.55,40.55,0,0,1,406,432.62Zm2,0a38.55,38.55,0,1,0,38.55-38.54A38.6,38.6,0,0,0,408,432.62Z" style="fill:#e0e0e0"></path><path d="M403.38,432.62a43.15,43.15,0,1,1,43.15,43.15A43.2,43.2,0,0,1,403.38,432.62Zm2.61,0a40.54,40.54,0,1,0,40.54-40.54A40.58,40.58,0,0,0,406,432.62Z" style="fill:#263238"></path><path d="M407.93,432.75l0-.63c0-.41,0-1,.09-1.83a38.57,38.57,0,0,1,15.18-28.16,38.12,38.12,0,0,1,7.35-4.39,37.19,37.19,0,0,1,8.85-2.78,38.45,38.45,0,1,1,0,75.59,37.51,37.51,0,0,1-8.85-2.79,38.21,38.21,0,0,1-7.36-4.39,39.29,39.29,0,0,1-9.79-10.94,38.54,38.54,0,0,1-5.38-17.22c-.08-.8-.06-1.42-.09-1.83l0-.63s0,.85.05,2.46a36.29,36.29,0,0,0,1,7,38,38,0,0,0,4.24,10.33,39,39,0,0,0,9.8,11,38.72,38.72,0,0,0,16.3,7.27,38.91,38.91,0,0,0,10,.57,38.46,38.46,0,0,0,10.38-2.2,38.77,38.77,0,0,0,0-72.9,39.17,39.17,0,0,0-20.37-1.63,38.57,38.57,0,0,0-16.3,7.27,38.86,38.86,0,0,0-9.81,11A38,38,0,0,0,409,423.3a37.1,37.1,0,0,0-1,7C407.9,431.9,407.93,432.75,407.93,432.75Z" style="fill:#263238"></path><path d="M571.55,433.1l-20.33-53.71,4.06-5.35-4.66-3.43-4.77,5.68-63.59,1.89-3.87.48S456,415.11,452,420.06c-4.22,5.29-9.13,11.88-9.13,11.88l4.08,2.67S458.12,421,463.69,411.8s16.09-26.37,16.09-26.37l14.43,56.78,5.11-.87L486,383.43l56.6-1.34-45.39,51,2.08,8.3,47.73-55.2,19.42,48.42Z" style="fill:#FF725E"></path><polygon points="494.82 437.07 447.34 430.96 446.53 434.54 494.82 442.21 494.82 437.07" style="fill:#FF725E"></polygon><path d="M490.66,357.23a1.46,1.46,0,0,0,.83-2.63,6.28,6.28,0,0,0-3.69-1.17c-4.69-.15-30.78,0-30.78,0s-1,1.36.87,2.87,6.84,3,9.55,3,10.34-1.26,14.47-1.67C484.46,357.41,488.18,357.29,490.66,357.23Z" style="fill:#455a64"></path><circle cx="568.69" cy="433.19" r="4.28" style="fill:#e0e0e0"></circle><path d="M564.41,433.19s0-.38.2-1a4.25,4.25,0,0,1,1.56-2.28,4.18,4.18,0,0,1,3.92-.56,4,4,0,0,1,1.91,1.44,4.12,4.12,0,0,1,0,4.85,4,4,0,0,1-1.91,1.44,4.18,4.18,0,0,1-3.92-.56,4.25,4.25,0,0,1-1.56-2.28c-.18-.64-.17-1-.2-1a.9.9,0,0,0,0,.28,2.89,2.89,0,0,0,.09.79,4.21,4.21,0,0,0,1.54,2.43,4.42,4.42,0,1,0,0-7,4.25,4.25,0,0,0-1.54,2.44,2.89,2.89,0,0,0-.09.79A.8.8,0,0,0,564.41,433.19Z" style="fill:#263238"></path><polygon points="483.76 378.97 482.9 375.17 477.6 375.17 478.4 379.52 483.3 380.62 483.76 378.97" style="fill:#FF725E"></polygon><circle cx="446.55" cy="432.62" r="4.28" style="fill:#e0e0e0"></circle><path d="M442.27,432.62s0-.38.2-1a4.29,4.29,0,0,1,1.57-2.27,4.14,4.14,0,0,1,5.82.87,4.09,4.09,0,0,1,0,4.86,4.06,4.06,0,0,1-1.91,1.44,4.16,4.16,0,0,1-3.91-.56,4.31,4.31,0,0,1-1.57-2.28c-.18-.65-.16-1-.2-1a.9.9,0,0,0,0,.28,2.79,2.79,0,0,0,.09.78,4.22,4.22,0,0,0,1.55,2.44,4.41,4.41,0,0,0,6.25-.87,4.44,4.44,0,0,0,.87-2.63,4.48,4.48,0,0,0-.87-2.63,4.41,4.41,0,0,0-6.25-.87,4.25,4.25,0,0,0-1.55,2.44,2.89,2.89,0,0,0-.09.79A.8.8,0,0,0,442.27,432.62Z" style="fill:#263238"></path><rect x="490.87" y="461.59" width="12.79" height="4.57" transform="translate(784.4 1080.32) rotate(-157.99)" style="fill:#263238"></rect><path d="M490.48,463.61h0l1.72-4.26h0l11.87,4.8h0l-1.72,4.26h0Zm1.73-4.23-1.71,4.21,11.83,4.78,1.7-4.21Z" style="fill:#455a64"></path><path d="M497.42,463.86h0a2.18,2.18,0,0,0,2-2.36l-1.51-17.42a2.18,2.18,0,0,0-2.36-2h0a2.17,2.17,0,0,0-2,2.36l1.5,17.42A2.18,2.18,0,0,0,497.42,463.86Z" style="fill:#263238"></path><path d="M497.42,463.86s-.17,0-.49-.05a2.12,2.12,0,0,1-1.2-.64,2,2,0,0,1-.49-.84,6.77,6.77,0,0,1-.15-1.19c-.06-.88-.14-1.87-.23-3-.18-2.2-.39-4.81-.62-7.71-.13-1.45-.25-3-.39-4.55,0-.4-.06-.79-.1-1.19a2.49,2.49,0,0,1,.09-1.13,2,2,0,0,1,1.72-1.33,2,2,0,0,1,1.92,1,2.52,2.52,0,0,1,.28,1.1c0,.4.07.8.1,1.19.14,1.58.28,3.1.4,4.56.27,2.89.5,5.5.71,7.7.1,1.09.19,2.08.28,3a6.34,6.34,0,0,1,.06,1.2,2.24,2.24,0,0,1-.34.91,2.21,2.21,0,0,1-1.08.84c-.3.1-.47.11-.47.13a1.4,1.4,0,0,0,.49-.07,2.1,2.1,0,0,0,1.17-.82,2.37,2.37,0,0,0,.4-1,6.56,6.56,0,0,0,0-1.24c-.07-.88-.14-1.87-.23-3-.18-2.21-.39-4.82-.62-7.71-.13-1.45-.25-3-.39-4.56,0-.39-.06-.79-.1-1.19a2.66,2.66,0,0,0-.32-1.24,2.35,2.35,0,0,0-4.27.37,2.68,2.68,0,0,0-.1,1.28c0,.4.07.79.1,1.19.14,1.58.28,3.1.41,4.55.26,2.89.5,5.5.7,7.71.1,1.09.2,2.08.28,2.95a6,6,0,0,0,.18,1.23,2.25,2.25,0,0,0,.55.89,2.13,2.13,0,0,0,1.29.61A1.48,1.48,0,0,0,497.42,463.86Z" style="fill:#455a64"></path><circle cx="496.69" cy="441.39" r="11.42" transform="translate(-87.76 125.25) rotate(-13.22)" style="fill:#e0e0e0"></circle><rect x="490.15" y="419.9" width="12.79" height="4.57" transform="translate(245.17 -179.15) rotate(26.94)" style="fill:#263238"></rect><path d="M489.8,421.35h0l2.08-4.09v0l11.41,5.8h0l-2.08,4.09v0Zm2.08-4.07-2.05,4.05,11.37,5.77,2.06-4Z" style="fill:#455a64"></path><path d="M490,441.33a6.53,6.53,0,1,0,6.52-6.53A6.52,6.52,0,0,0,490,441.33Z" style="fill:#263238"></path><path d="M496.39,422.19h0a2.19,2.19,0,0,0-2.19,2.18v17.49a2.18,2.18,0,0,0,2.19,2.18h0a2.18,2.18,0,0,0,2.18-2.18V424.37A2.19,2.19,0,0,0,496.39,422.19Z" style="fill:#263238"></path><path d="M496.39,422.19s.17,0,.48.09A2.18,2.18,0,0,1,498,423a2.11,2.11,0,0,1,.42.89,5.69,5.69,0,0,1,0,1.19c0,.88,0,1.88,0,3,0,2.21,0,4.83,0,7.73,0,1.46,0,3,0,4.57v1.2a2.33,2.33,0,0,1-.19,1.12,2,2,0,0,1-3.65,0,2.45,2.45,0,0,1-.18-1.12v-1.2c0-1.58,0-3.11,0-4.57,0-2.9,0-5.52,0-7.73,0-1.1,0-2.1,0-3a6.43,6.43,0,0,1,0-1.19,2.23,2.23,0,0,1,.42-.89,2.18,2.18,0,0,1,1.14-.74c.31-.08.49-.07.49-.09a1.73,1.73,0,0,0-.5,0,2.24,2.24,0,0,0-1.23.72,2.2,2.2,0,0,0-.48.94,5.51,5.51,0,0,0-.07,1.23c0,.88,0,1.88,0,3,0,2.21,0,4.83,0,7.73,0,1.46,0,3,0,4.57v1.2a2.67,2.67,0,0,0,.22,1.26,2.35,2.35,0,0,0,4.28,0,2.66,2.66,0,0,0,.21-1.26v-1.2c0-1.58,0-3.11,0-4.57,0-2.9,0-5.52,0-7.73,0-1.1,0-2.1,0-3a6.16,6.16,0,0,0-.08-1.23,2.31,2.31,0,0,0-.47-.94,2.27,2.27,0,0,0-1.23-.72A1.72,1.72,0,0,0,496.39,422.19Z" style="fill:#455a64"></path><path d="M542.3,246.16s-2.48.52-2.68,1.31c-.14.57,10.91,3.83,10.91,3.83l.09-2.22-3.33-2.43Z" style="fill:#FF725E"></path><g style="opacity:0.30000000000000004"><path d="M542.3,246.16s-2.48.52-2.68,1.31c-.14.57,10.91,3.83,10.91,3.83l.09-2.22-3.33-2.43Z"></path></g><path d="M533.64,266.14a48.2,48.2,0,0,1,3.18-7.72,16.75,16.75,0,0,1,5.48-6.18c.35-.23,3-1.6,3.26-1.31s-1.88,1.71-1.92,2a14.38,14.38,0,0,1-3.73,7.65,38.1,38.1,0,0,1-6.27,5.55" style="fill:#263238"></path><path d="M558.74,270.72a12.48,12.48,0,0,0-2.15-16.79l-.49-.42c-5.61-4.17-12.28-1.74-16.29,4l-13.59,18.69-.41,12.92,7.57,3.19c1.2-1.56,5.62-7.21,5.63-7.2s5.8,3.51,10.18-1.57C551.3,281.06,555.24,275.65,558.74,270.72Z" style="fill:#ffbf9d"></path><path d="M539,285.08a16.23,16.23,0,0,1-5-7.58s-1.63,5.2,3.88,9Z" style="fill:#ff9a6c"></path><path d="M552.18,273.57a1,1,0,0,1-1.33.14.91.91,0,0,1-.2-1.29,1,1,0,0,1,1.33-.15A.92.92,0,0,1,552.18,273.57Z" style="fill:#263238"></path><path d="M555.75,272.07c-.17,0-.38-.86-1.17-1.52s-1.7-.75-1.71-.92.23-.17.64-.14a2.65,2.65,0,0,1,2.3,1.94C555.89,271.82,555.83,272.07,555.75,272.07Z" style="fill:#263238"></path><path d="M544.32,267.9a1,1,0,0,1-1.32.15.92.92,0,0,1-.21-1.3,1,1,0,0,1,1.33-.15A.92.92,0,0,1,544.32,267.9Z" style="fill:#263238"></path><path d="M547.93,266c-.17,0-.38-.86-1.17-1.52s-1.7-.75-1.71-.92.23-.17.64-.14a2.52,2.52,0,0,1,1.46.62,2.57,2.57,0,0,1,.84,1.32C548.07,265.79,548,266,547.93,266Z" style="fill:#263238"></path><path d="M545.61,274.2a7,7,0,0,1,1.47.84c.22.15.44.27.59.16a1.31,1.31,0,0,0,.37-.71l.69-2a34.87,34.87,0,0,1,2-5.13,33.4,33.4,0,0,1-1.61,5.28l-.72,2a1.61,1.61,0,0,1-.56.88.69.69,0,0,1-.58,0,2.09,2.09,0,0,1-.38-.24A6.27,6.27,0,0,1,545.61,274.2Z" style="fill:#263238"></path><path d="M549.31,264.25c-.27.12-.78-.65-1.6-1.35s-1.65-1.13-1.56-1.4.34-.19.78-.12a3.24,3.24,0,0,1,1.48.75,3.16,3.16,0,0,1,.93,1.35C549.47,263.89,549.43,264.19,549.31,264.25Z" style="fill:#263238"></path><path d="M558.26,269.1c-.32,0-.81-.67-1.59-1.31s-1.54-1.06-1.54-1.37c0-.15.26-.25.69-.18a3.28,3.28,0,0,1,1.54.76,3.13,3.13,0,0,1,1,1.4C558.46,268.81,558.4,269.07,558.26,269.1Z" style="fill:#263238"></path><path d="M537,261.64c-.06-.12-2.65-4-5.48-.41s1.36,5.71,1.45,5.61S537,261.64,537,261.64Z" style="fill:#ffbf9d"></path><path d="M533,264.61s-.09,0-.24,0a.76.76,0,0,1-.47-.36,2,2,0,0,1,.37-2,2.76,2.76,0,0,1,.89-.76.9.9,0,0,1,.85-.11.4.4,0,0,1,.23.46c0,.14-.11.2-.09.22s.12,0,.21-.17a.53.53,0,0,0,0-.34.59.59,0,0,0-.27-.36,1.14,1.14,0,0,0-1.1,0,2.68,2.68,0,0,0-1,.83,2.08,2.08,0,0,0-.31,2.28.85.85,0,0,0,.65.35C532.91,264.69,533,264.63,533,264.61Z" style="fill:#ff9a6c"></path><path d="M561,262.9c.83.13.54-3.13-.4-4.9-1.41-2.67-4.27-5.85-6.72-6.84-2.95-1.18-5.89-1.53-8.81-.26a17.94,17.94,0,0,0-7.23,6,5.52,5.52,0,0,0-1.2,2.61c-.11,1.2.47,2.45-.43,3.53a1.93,1.93,0,0,0-.47,1.39c.11,1.22,1.44,1.19,2.33.81a19.85,19.85,0,0,0,7-7.63c.29-.74.45-1.54.78-2.26a2.73,2.73,0,0,1,1.65-1.61,2.27,2.27,0,0,1,.53-.07,4.77,4.77,0,0,1,4.3,2.18c1.48,2.3,4.14,6.07,5.59,6.08a7,7,0,0,0,2.89-.39Z" style="fill:#263238"></path><path d="M542.66,272.73c.13.09-.51.92-.25,2.07s1.23,1.72,1.14,1.85-.32,0-.7-.27a2.62,2.62,0,0,1-1-1.5,2.24,2.24,0,0,1,.26-1.69C542.35,272.82,542.61,272.68,542.66,272.73Z" style="fill:#263238"></path><path d="M536.87,258.15c-1.14-4.3-1.19-6.68.08-9.15l27.84,22.1s-3.7.76-6-.39l1-1.7s-13.7-11.39-18.89-12.08l-2.29-.41Z" style="fill:#455a64"></path><path d="M542.15,255.22s-5.92,6.87-9,13.14c-3.19,6.5,2.61,13,2.61,13s-3.58-8.3.62-14.21c3.81-5.34,7.8-10.33,7.8-10.33Z" style="fill:#455a64"></path><path d="M547.23,242s-1.09.18-.9,1.59l.24,1.71a23.29,23.29,0,0,0-4.49.92s4.82,1.16,7,3.85a.24.24,0,0,1-.29.37c-2-1-7.51-3.45-9-3.23a3.93,3.93,0,0,0-2.11.89,6,6,0,0,0-1.74,5.72l.52,2.52,4-.51a5.9,5.9,0,0,1,4.33,1.16c2.85,2.13,8.56,5.67,9.79,6.65,1,.81,8.15,7.36,9.83,7.43s3.4.31,3.17-1.21-1.58-9-4.24-14.08a24.34,24.34,0,0,0-6.57-7.82s-8.31-6.29-9.54-6" style="fill:#FF725E"></path><path d="M556.62,252.81a7.84,7.84,0,0,0-1.16-1.5,23.57,23.57,0,0,0-3.36-3.09,24.77,24.77,0,0,0-3.89-2.39,8.5,8.5,0,0,0-1.76-.7,15.4,15.4,0,0,0,1.65.92,33.18,33.18,0,0,1,3.79,2.45,32.29,32.29,0,0,1,3.39,3A15.5,15.5,0,0,0,556.62,252.81Z" style="fill:#263238"></path><g style="opacity:0.30000000000000004"><path d="M550.64,252.12a.61.61,0,0,1,.45-.39,2.53,2.53,0,0,1,.81-.12,2.2,2.2,0,0,1,1.64,1.3c.3.71-.71,1.21-1.27,1.06a2.7,2.7,0,0,1-1.35-1A.92.92,0,0,1,550.64,252.12Z"></path></g><g style="opacity:0.30000000000000004"><path d="M556.38,256.31a1,1,0,0,1,.48.24,10,10,0,0,1,2.74,3.5,35.28,35.28,0,0,1,1.87,4.39,23.65,23.65,0,0,1-5.42-7.6.44.44,0,0,1-.06-.25A.35.35,0,0,1,556.38,256.31Z"></path></g><g style="opacity:0.30000000000000004"><path d="M561.73,255.74a1,1,0,0,1,.38.37,10,10,0,0,1,1.48,4.2,29,29,0,0,1,.17,4.47,22,22,0,0,1-2.52-8.65.71.71,0,0,1,0-.25A.36.36,0,0,1,561.73,255.74Z"></path></g><path d="M541.15,247.28a12.76,12.76,0,0,0,1.92.91c1.2.52,2.86,1.21,4.71,2l1.35.55a.41.41,0,0,0,.51-.22.39.39,0,0,0,0-.3.29.29,0,0,0-.07-.12l-.06-.06c-.15-.17-.31-.33-.47-.49a9.4,9.4,0,0,0-1.87-1.37,7.9,7.9,0,0,0-1.44-.62,1.54,1.54,0,0,0-.56-.12c0,.06.77.28,1.87.95a9.81,9.81,0,0,1,1.77,1.4,5,5,0,0,1,.45.47c.1.11.07.08.07.12a.06.06,0,0,1-.08,0l-1.34-.55c-1.85-.75-3.53-1.41-4.75-1.87A13.33,13.33,0,0,0,541.15,247.28Z" style="fill:#263238"></path><path d="M501.88,329.69s43.08,23.85,39.13,37-39.15,37.54-39.15,37.54l-8-6.83s13.75-18.17,17.6-24c2.88-4.38,8.45-7.68,8.45-7.68s-24.31-8.35-33.83-13S473,345,472.24,338.21s1.08-10.13,2.16-13.19,9-8.8,9-8.8Z" style="fill:#263238"></path><path d="M473,340.49s0,.05,0,.14,0,.24,0,.42a9.36,9.36,0,0,0,.35,1.58,12.68,12.68,0,0,0,3.07,5.05,13.81,13.81,0,0,0,3.29,2.47q2,1,4.21,2.08c3,1.41,6.32,2.87,9.85,4.33,7.06,2.89,13.57,5.22,18.32,6.78,2.37.78,4.31,1.37,5.65,1.76l1.55.43a3.31,3.31,0,0,0,.55.13,4,4,0,0,0-.53-.2l-1.53-.49c-1.33-.43-3.25-1.05-5.61-1.86-4.73-1.62-11.22-4-18.27-6.88-3.52-1.45-6.85-2.9-9.84-4.29q-2.25-1.05-4.22-2a14,14,0,0,1-3.24-2.39,12.94,12.94,0,0,1-3.12-4.92,12.26,12.26,0,0,1-.41-1.55C473.07,340.68,473.05,340.49,473,340.49Z" style="fill:#455a64"></path><polygon points="503.38 403.32 514.38 395.01 503.42 384.58 495.15 394.3 494.35 399.99 499.4 404.2 503.38 403.32" style="fill:#263238"></polygon><path d="M499.06,422.71a28.69,28.69,0,0,1-5.72-6.8,103.41,103.41,0,0,1-4.85-11.55c-.8-2.12-5-7.09-3.35-8.71s11.09-2.44,11.09-2.44-1.72,1.93-.42,3.75a42.6,42.6,0,0,0,4.68,4.83s3.48,0,4.29,1-2.49,2.67-2.49,2.67-2,5-1.56,7.37-.12,2.76,1.21,4.9a6.73,6.73,0,0,1,1.22,3.66s-1.09,2.09-2,2A6.89,6.89,0,0,1,499.06,422.71Z" style="fill:#455a64"></path><path d="M501.18,423.38a5.09,5.09,0,0,1-2.15-.65,28.35,28.35,0,0,1-5.71-6.79,106.53,106.53,0,0,1-4.86-11.55c-.79-2.13-5-7.09-3.34-8.71a3.7,3.7,0,0,1,1.64-1s2.11,6.42,3.89,9,3.61,9.44,5.59,12.41a43.9,43.9,0,0,0,4.91,5.84l1.17.63C502,423,501.76,423.38,501.18,423.38Z" style="fill:#e0e0e0"></path><path d="M500.81,411.8a7.35,7.35,0,0,1-1.22.28,8.21,8.21,0,0,1-1.24-.1,2.1,2.1,0,0,0,2.46-.18Z" style="fill:#fff"></path><path d="M501.2,409.09a7.85,7.85,0,0,1-1.47.22,7.33,7.33,0,0,1-1.47-.27,2.17,2.17,0,0,0,1.47.48A2.11,2.11,0,0,0,501.2,409.09Z" style="fill:#fff"></path><path d="M501.86,406.91c0-.06-.57-.05-1.24-.17a10.44,10.44,0,0,0-1.22-.24,2.42,2.42,0,0,0,1.19.45A2.38,2.38,0,0,0,501.86,406.91Z" style="fill:#fff"></path><path d="M491.13,399.18a2.8,2.8,0,0,0,.32.8c.23.48.57,1.13,1,1.82s.83,1.31,1.14,1.73a3.21,3.21,0,0,0,.55.67c.05,0-.68-1.12-1.51-2.5S491.18,399.16,491.13,399.18Z" style="fill:#fff"></path><path d="M526.79,363.4a8,8,0,0,0-3.94.56,10.15,10.15,0,0,0-2.51,1.31,3.83,3.83,0,0,1-.68.47c-.17.08-.28.05-.29.08s.1.1.33.05a2.78,2.78,0,0,0,.77-.39,14.39,14.39,0,0,1,2.5-1.19A26.7,26.7,0,0,1,526.79,363.4Z" style="fill:#455a64"></path><rect x="431.88" y="377.9" width="47.21" height="5.46" style="fill:#FF725E"></rect><path d="M419.91,377.85s2-7.53,3.86-7.69S469.86,374,469.86,374s4,2.9,0,6.2h-3.14a4.55,4.55,0,0,1,2,3.61c0,2.35,3.16,40.2-1,42.24s-41.88,4.51-43.45-2.4S419.91,377.85,419.91,377.85Z" style="fill:#455a64"></path><path d="M445.21,371.67c.86,0,1.4,1,1.69,1.94,1.62,5,1.43,10.54,1.21,15.88l2.93-.44a.85.85,0,0,0,.5-.18,1.17,1.17,0,0,0,.23-.95c-.21-5.45-.44-11-2.34-16.06a2.2,2.2,0,0,0-.94-.62c-.72-.3-3.32-.74-3.94.41Z" style="fill:#263238"></path><rect x="446.91" y="384.82" width="5.63" height="6.8" style="fill:#263238"></rect><g style="opacity:0.30000000000000004"><path d="M423.34,372.3c-.09.84-.41,1.87.21,2.36a1.62,1.62,0,0,0,.85.28l22.59,2.9c-4.11.71-8.3.28-12.46.1s-8.43-.08-12.3,1.63c-.37.17-.85.32-1.13,0a1.25,1.25,0,0,1-.06-1.06q.6-2.52,1.22-5.05c.16-.65.42-1.41,1-1.54C423.27,371.91,423.38,371.89,423.34,372.3Z"></path></g><path d="M422.91,370.83s.21,0,.4.29a2,2,0,0,1,.14,1.4,8.4,8.4,0,0,0-.18,1,1.14,1.14,0,0,0,.32,1,2.16,2.16,0,0,0,1.2.36l1.52.17c4.27.49,10.17,1.19,16.67,2s12.39,1.56,16.65,2.14l5,.71L466,380a2.71,2.71,0,0,1,.47.11,1.48,1.48,0,0,1-.48,0l-1.38-.12-5.06-.55c-4.27-.48-10.17-1.18-16.67-2s-12.39-1.57-16.65-2.14l-1.52-.21a2.31,2.31,0,0,1-1.35-.48,1.35,1.35,0,0,1-.38-1.21,8.62,8.62,0,0,1,.23-1,2,2,0,0,0,0-1.3A1,1,0,0,0,422.91,370.83Z" style="fill:#263238"></path><g style="opacity:0.30000000000000004"><path d="M453.7,378.6l.11.08A21.55,21.55,0,0,0,467,380.31,124.55,124.55,0,0,0,453.7,378.6Z"></path></g><path d="M430.43,422.45a9.44,9.44,0,0,1-.41-1.62c-.24-1.05-.54-2.57-.88-4.46-.68-3.79-1.45-9-2-14.89s-.67-11.16-.66-15c0-1.92,0-3.47.09-4.55a9.68,9.68,0,0,1,.13-1.66,11,11,0,0,1,.07,1.67c0,1.16.05,2.69.08,4.54.08,3.83.3,9.13.81,15s1.21,11.08,1.8,14.87c.29,1.82.53,3.34.72,4.48A9.42,9.42,0,0,1,430.43,422.45Z" style="fill:#263238"></path><path d="M467.85,421.71a7.46,7.46,0,0,1-1.41.3c-.91.16-2.23.35-3.87.55a122.86,122.86,0,0,1-12.88.87,124.15,124.15,0,0,1-12.91-.47c-1.64-.15-3-.3-3.89-.43a8.44,8.44,0,0,1-1.41-.25,6.74,6.74,0,0,1,1.43.05l3.9.26c3.29.21,7.84.39,12.87.32s9.57-.41,12.85-.72l3.88-.38A8.08,8.08,0,0,1,467.85,421.71Z" style="fill:#263238"></path><path d="M449.17,389.2a14.49,14.49,0,0,1-8.2-2.06c.06-.14,1.82.58,4.07,1.14S449.18,389,449.17,389.2Z" style="fill:#263238"></path><path d="M447.3,390.45a10.07,10.07,0,0,1-2.55,1.89,9.82,9.82,0,0,1-2.83,1.44,10.35,10.35,0,0,1,2.55-1.89A9.82,9.82,0,0,1,447.3,390.45Z" style="fill:#263238"></path><path d="M456.87,386.4a8.41,8.41,0,0,1-2.43,1.77,8.84,8.84,0,0,1-2.71,1.33,17.75,17.75,0,0,1,5.14-3.1Z" style="fill:#263238"></path><path d="M458.53,391.85a9.91,9.91,0,0,1-3.16-.61,10,10,0,0,1-3-1.12,20.33,20.33,0,0,1,6.18,1.73Z" style="fill:#263238"></path><path d="M455.71,405.71a11.94,11.94,0,0,1-2.09,1.65c-1.34.95-3.23,2.21-5.36,3.52s-4.11,2.43-5.56,3.2a13.75,13.75,0,0,1-2.41,1.13,13,13,0,0,1,2.22-1.45l5.48-3.32,5.42-3.39A15,15,0,0,1,455.71,405.71Z" style="fill:#263238"></path><path d="M536.63,289.39c.11.32-5.44,18.77-7,21.75S504.15,331,504.15,331s-8.78-5.64-11.12-6.33-4.46-4.46-10.79-2.83c-4.8,1.23-7.81,2.3-7.81,2.3s-.52-6.07,10.34-18.93,21.63-22.48,30.72-25.71l9.08-3.22Z" style="fill:#ebebeb"></path><path d="M503.44,295.71s7.54,7.76,14.52,7.13a38.83,38.83,0,0,0,13.3-4.12l2,6.41s-10.17,2.45-15.53,2.83-18.32-6.29-18.32-6.29Z" style="fill:#263238"></path><path d="M522,274a13.23,13.23,0,0,1,6.74,4.33,63.53,63.53,0,0,1,5.58,8.77s-4.82-4.76-11.21-4-8.08,3.66-10.49,6.36-12.89,15.36-12.89,15.36l16.56,19.6-8.91,6.84L489.7,315.78l-14.56,8,15.53-19.66,26.42-27.87Z" style="fill:#263238"></path><path d="M459.79,290.2a116.41,116.41,0,0,1,23.79-19.3c.33.44.88,1.52,1.21,2-8,6.79-16.42,12.74-24.22,19.8" style="fill:#455a64"></path><rect x="483.62" y="269.9" width="3.23" height="2.61" transform="translate(-70.6 278.94) rotate(-30)" style="fill:#263238"></rect><path d="M433.83,310.61c.17,1.36.33,2.71.5,4.07a30.32,30.32,0,0,0,13.41-6.06l2.86-6.8A26.8,26.8,0,0,1,433.83,310.61Z" style="fill:#455a64"></path><path d="M462.82,290.88a6.67,6.67,0,0,0-6.12-.27,17.4,17.4,0,0,0-5.13,3.74c-2.64,2.55-5.18,5.36-6.45,8.8s0,7.86,2.56,10.53l8.73-4Z" style="fill:#FF725E"></path><g style="opacity:0.30000000000000004"><path d="M449.87,296.07c.1-.12,4.25,2.63,4.25,2.63l-5.25,16.57s-2.85-3.1-3.69-5.88a9.12,9.12,0,0,1,.4-7.34A22.05,22.05,0,0,1,449.87,296.07Z"></path></g><path d="M522,274s-5.74-10.44-10-14.05-21.31-1.71-24.1,3.53c-2.95,5.52-2.09,9.33-2.09,9.33S459.47,291.18,454,299.4c-5.85,8.85-6.37,12.86-6.33,14.9.13,6.55,7.68,11.47,14.78,13.36s11.07-2.29,11.07-2.29,20.65-22.72,24.59-27.3S522,274,522,274Z" style="fill:#FF725E"></path><rect x="496.48" y="272.53" width="12.93" height="11.58" rx="5.3" transform="translate(354.93 -277.11) rotate(46.12)" style="fill:#455a64"></rect><path d="M495.61,274.32c-.26.4-13.35,12.18-15.85,16-1.65,2.51-3.34,4.74-.15,8.29a37.26,37.26,0,0,0,3.82,3.63,4.69,4.69,0,0,0,6.18-.17c4.93-4.54,14.68-13.61,16.91-16.38Z" style="fill:#263238"></path><rect x="505.68" y="272.04" width="4.59" height="3.51" transform="translate(353.22 -282.13) rotate(46.12)" style="fill:#455a64"></rect><rect x="506.26" y="270.81" width="6.17" height="3.15" transform="translate(352.62 -283.55) rotate(46.12)" style="fill:#e0e0e0"></rect><path d="M495.61,274.32s.33.23.84.73,1.26,1.21,2.16,2.12c1.8,1.8,4.27,4.33,7,7.14l1.2,1.24.18.19-.19.18c-2.52,2.42-4.78,4.54-6.41,6l-1.94,1.76c-.46.41-.73.62-.75.59a3.93,3.93,0,0,1,.62-.72l1.83-1.87c1.57-1.58,3.78-3.75,6.29-6.17v.36c-.39-.4-.79-.82-1.21-1.24-2.7-2.81-5.12-5.37-6.86-7.25-.86-.93-1.56-1.7-2-2.23A5.76,5.76,0,0,1,495.61,274.32Z" style="fill:#455a64"></path><path d="M509.09,276.36h.07l-.08.08a10.51,10.51,0,0,1-1.92-1.71,7,7,0,0,1-1.63-2.06c.11-.1,1,.66,2,1.7a10.07,10.07,0,0,1,1.63,2l-.08.08S509.07,276.37,509.09,276.36Z" style="fill:#263238"></path><path d="M510.07,275.41s0,0,.08,0l-.08.07a10.57,10.57,0,0,1-1.93-1.7c-1-1.05-1.73-2-1.62-2.07s1,.66,2,1.7a10.42,10.42,0,0,1,1.63,2l-.08.07A.11.11,0,0,1,510.07,275.41Z" style="fill:#263238"></path><g style="opacity:0.30000000000000004"><path d="M487.86,263.43s9.05,4.44,9.05,4.44l-11.14,4.89S485,268.72,487.86,263.43Z"></path></g><g style="opacity:0.30000000000000004"><path d="M463.72,296.07s-12.41,13.12-10,19.82,11.38,9.71,15.47,8,11.73-12,11.73-12Z"></path></g><path d="M496.94,267.79a24.31,24.31,0,0,1-4.67-1.91,24.8,24.8,0,0,1-4.44-2.39,24.78,24.78,0,0,1,4.67,1.92A25.17,25.17,0,0,1,496.94,267.79Z" style="fill:#263238"></path><path d="M511.39,259.75c0,.08-1,.38-2.63,1a28.61,28.61,0,0,1-6.52,2.16,9,9,0,0,1-3.83-.17,9.5,9.5,0,0,1-2.8-1.39,17.34,17.34,0,0,1-1.64-1.3c-.36-.33-.55-.52-.53-.55a27.87,27.87,0,0,1,2.37,1.54,10,10,0,0,0,2.72,1.23,9.15,9.15,0,0,0,3.64.13,37.12,37.12,0,0,0,6.46-2A9.13,9.13,0,0,1,511.39,259.75Z" style="fill:#263238"></path><path d="M480.89,315s4.32,1.08,8.25,1.82c2.42.47,4.87,1.52,7.22.76a12.5,12.5,0,0,0,4.52-3.2c.91-.87,1.89-1.88,1.95-3.14a5,5,0,0,0-.78-2.5c-1.49-2.89-4.48-8.65-6-11.54" style="fill:#FF725E"></path><path d="M496.07,297.2a9,9,0,0,1,.83,1.38l2.09,3.85,3,5.73a14.46,14.46,0,0,1,.83,1.72A3.21,3.21,0,0,1,503,312c-.45,1.41-1.62,2.31-2.61,3.28a11.82,11.82,0,0,1-3.43,2.4,6.75,6.75,0,0,1-3.9.3c-1.23-.21-2.34-.56-3.39-.79l-2.94-.68-4.26-1a9.16,9.16,0,0,1-1.54-.45,11,11,0,0,1,1.59.25l4.28.86,3,.61c1.08.23,2.19.56,3.37.75a6.46,6.46,0,0,0,3.63-.3,11.36,11.36,0,0,0,3.27-2.31,8.31,8.31,0,0,0,2.48-3.05c.39-1.19-.34-2.36-.87-3.43-1.1-2.15-2.09-4.11-2.94-5.78l-1.94-3.93A9.37,9.37,0,0,1,496.07,297.2Z" style="fill:#263238"></path><path d="M495.55,268.63a11.21,11.21,0,0,1-1,1.18c-.7.73-1.73,1.77-3,3-2.62,2.49-6.39,5.77-10.73,9.17-2.16,1.71-4.25,3.3-6.15,4.74l-2.72,2a21.8,21.8,0,0,1-2.47,1.66,6.18,6.18,0,0,1-4.21.78,5.35,5.35,0,0,1-1.12-.33,1.1,1.1,0,0,1-.36-.2c0-.05.53.21,1.51.33a6.19,6.19,0,0,0,4-.9c1.53-.9,3.17-2.33,5.08-3.75l6.12-4.77c4.33-3.4,8.13-6.62,10.8-9l3.15-2.89A7.7,7.7,0,0,1,495.55,268.63Z" style="fill:#263238"></path><path d="M514.13,262a15,15,0,0,1-2.54.95L505.41,265l-6.17,2.12a14.06,14.06,0,0,1-2.59.78,13.59,13.59,0,0,1,2.46-1.13c1.55-.63,3.72-1.44,6.13-2.26s4.63-1.49,6.24-1.94A13.48,13.48,0,0,1,514.13,262Z" style="fill:#263238"></path><path d="M462.42,291.13c.05.08-1.28,1-3.22,2.76a40.84,40.84,0,0,0-6.61,7.72,29.68,29.68,0,0,0-4.14,9.23c-.61,2.54-.57,4.18-.68,4.17a5.34,5.34,0,0,1,0-1.14,8.72,8.72,0,0,1,.1-1.34q0-.4.09-.84t.18-.93a27.63,27.63,0,0,1,4.06-9.44,36.38,36.38,0,0,1,6.81-7.7,26.6,26.6,0,0,1,2.48-1.9A4.64,4.64,0,0,1,462.42,291.13Z" style="fill:#263238"></path><path d="M478.14,315.12c0,.14-5.51-.6-12.25-1.66s-12.2-2-12.17-2.17,5.5.6,12.25,1.66S478.16,315,478.14,315.12Z" style="fill:#263238"></path><path d="M469.48,323.61a3.62,3.62,0,0,1-.57-.82c-.34-.55-.8-1.36-1.33-2.38a69.29,69.29,0,0,1-3.66-8.21,68.52,68.52,0,0,1-2.57-8.62c-.26-1.12-.44-2-.54-2.67a3.41,3.41,0,0,1-.1-1,36.25,36.25,0,0,1,1,3.58c.6,2.21,1.5,5.25,2.71,8.53s2.51,6.16,3.5,8.23S469.55,323.57,469.48,323.61Z" style="fill:#263238"></path><path d="M478.49,314.61c-.1.1-3.94-3.39-8.58-7.81s-8.31-8.07-8.21-8.17,3.93,3.38,8.57,7.8S478.59,314.5,478.49,314.61Z" style="fill:#263238"></path><circle cx="521.07" cy="263.53" r="10.96" transform="translate(186.58 742.15) rotate(-81.88)" style="fill:#455a64"></circle><path d="M529.65,263.56c-.06,0,0-.74-.36-2a8.34,8.34,0,0,0-3.06-4.49,8.2,8.2,0,0,0-7.73-1.13,7.44,7.44,0,0,0-2,1.11,7.63,7.63,0,0,0-1.72,1.73,8.08,8.08,0,0,0,0,9.6,7.59,7.59,0,0,0,1.71,1.73,7.67,7.67,0,0,0,2.06,1.12,8.2,8.2,0,0,0,7.73-1.13,8.36,8.36,0,0,0,3.06-4.5c.34-1.27.3-2,.36-2a1.91,1.91,0,0,1,0,.54,6.94,6.94,0,0,1-.19,1.53,8.31,8.31,0,0,1-3,4.74,8.47,8.47,0,0,1-8.11,1.29,7.86,7.86,0,0,1-2.19-1.17,8.1,8.1,0,0,1-1.83-1.82,8.56,8.56,0,0,1,0-10.21,8.52,8.52,0,0,1,4-3,8.61,8.61,0,0,1,4.52-.35,8.43,8.43,0,0,1,3.59,1.64,8.33,8.33,0,0,1,3,4.73,7,7,0,0,1,.19,1.54A1.8,1.8,0,0,1,529.65,263.56Z" style="fill:#263238"></path><path d="M526.9,263.49s0-.5-.27-1.35a5.64,5.64,0,0,0-2.06-3,5.41,5.41,0,1,0,0,8.66,5.64,5.64,0,0,0,2.06-3c.23-.85.22-1.35.27-1.35s0,.13,0,.36a4.56,4.56,0,0,1-.11,1,5.6,5.6,0,0,1-2,3.22,5.84,5.84,0,1,1,0-9.24,5.63,5.63,0,0,1,2,3.22,4.61,4.61,0,0,1,.11,1C526.93,263.37,526.92,263.49,526.9,263.49Z" style="fill:#263238"></path><path d="M523.9,263.54s-.06-.24-.18-.62a2.68,2.68,0,0,0-1-1.32,2.44,2.44,0,0,0-2.29-.3,2.39,2.39,0,0,0,0,4.48,2.47,2.47,0,0,0,2.29-.3,2.69,2.69,0,0,0,1-1.33c.12-.38.13-.61.18-.61a1.18,1.18,0,0,1,0,.66,2.6,2.6,0,0,1-.94,1.57,2.79,2.79,0,0,1-2.67.46,2.85,2.85,0,0,1,0-5.38,2.79,2.79,0,0,1,2.67.45,2.6,2.6,0,0,1,.94,1.57A1.22,1.22,0,0,1,523.9,263.54Z" style="fill:#263238"></path><path d="M528.78,286.24s7.68.28,9,6.12,6.36,30.87,7,32.25,21.54,23.82,21.54,23.82l-7.24,5.83S539.74,338,534.92,331c-5.2-7.52-14.27-35.12-15.06-38.55S523.09,285.14,528.78,286.24Z" style="fill:#ffbf9d"></path><path d="M566.9,348.81s4.36.65,4.72.79a45.75,45.75,0,0,1,4.69,4.12c.57.72,1,3.55-.32,4.51l-.79.51s-.26,2.09-1.77,2.33S572,361,572,361s.37,1.86-1.3,1.75l-1.67-.12s-1.18,1.72-2.25,1.09-5.12-4-5.52-5.25-.75-2.35-.75-2.35l-4.11-2.83,8.19-7.7Z" style="fill:#263238"></path><path d="M541.79,310.48l-15.58,6.13s-7.59-17.47-8.24-21.07.37-11.15,6.49-12.18,11.43,3.4,13.4,10.53S541.79,310.48,541.79,310.48Z" style="fill:#ebebeb"></path><path d="M541.79,310.48a.8.8,0,0,0,0-.23l-.13-.66-.51-2.54c-.46-2.2-1.15-5.37-2.11-9.28-.25-1-.51-2-.79-3.06a23.84,23.84,0,0,0-1.06-3.27,15,15,0,0,0-4.54-6.14,10.81,10.81,0,0,0-3.82-1.91,10.31,10.31,0,0,0-4.53-.16,7.1,7.1,0,0,0-4,2.28,9.93,9.93,0,0,0-2.12,4.13,15.18,15.18,0,0,0-.5,4.05,11.21,11.21,0,0,0,.2,2,19,19,0,0,0,.54,1.9c.83,2.47,1.76,4.8,2.66,7,1.8,4.48,3.54,8.54,5.06,12l.06.13.13-.06,11.39-4.55,3.08-1.26c.34-.13.6-.24.8-.33l.25-.11-.29.1-.83.3-3.14,1.2-11.37,4.41.18.07c-1.5-3.51-3.21-7.57-5-12-.89-2.24-1.81-4.58-2.64-7a12.84,12.84,0,0,1-.22-7.77,9.54,9.54,0,0,1,2-4,6.67,6.67,0,0,1,3.83-2.16,10,10,0,0,1,4.36.14,10.6,10.6,0,0,1,3.71,1.85,14.81,14.81,0,0,1,4.47,6,25.42,25.42,0,0,1,1.07,3.23c.28,1.06.55,2.08.8,3.05,1,3.89,1.72,7.06,2.23,9.25l.58,2.52c.07.27.12.49.16.66Z" style="fill:#263238"></path></g><g id="freepik--character-1--inject-155"><polygon points="293.84 370.21 297.48 373.27 306.89 362.08 302.54 359.86 293.84 370.21" style="fill:#e0e0e0"></polygon><path d="M246.66,324s44,24.34,39.93,37.72S246.64,400,246.64,400l-8.16-7s14-18.55,18-24.53c2.93-4.46,8.62-7.84,8.62-7.84s-24.81-8.52-34.52-13.28-13.39-7.76-14.12-14.72,1.09-10.35,2.19-13.46,9.17-9,9.17-9Z" style="fill:#263238"></path><path d="M310.64,470.08l2.2-18.73-1.11,18.83Zm12.66-21.16-7.63-15.27,7.63,15.27-7.22-15.47L323.85,450,332,466.37l-.47.23Zm-31.64,13.9L313,433.07l-21.27,29.77Zm40.83-19.93-14.9-10.64.4-.55,15.22,11.71,14.15,10.1-14.13-10.09L347,454Zm-19.65,8.46,2.07-17.61-2.1,18.18Zm-18.16-11.8-16.37,7.16,16.74-7.36,16.15-8.61.63,1.31-17.15,7.5L278.91,448Zm41.5-7.14-17.51-2.19,17.51,2.19-17.37-3.07,18,3.15L355,434.76l-.14.94Zm-62-4,36.59,0H274.22Zm44.35-2,19.36-5.69,15.67-4.9L338,420.71l15.58-4.87L338,420.71l15.66-4.6-17.44,5.16-17.57,5.49Zm17.57-5.13.1,0Zm-42.28-1-17.46-5.46.34-1,17.69,6.63,16.9,5.28-16.9-5.28L311,426.7Zm5.8-9.77L287,397.88l12.66,12.66L288.1,396.88l11.84,13.94,12.94,12.94-1.15,1.05ZM317,424l14-13,12.36-12.36L331.09,411l12.83-11.85-13.41,12.43-12.94,12.94Zm3.34-16.41-4.88,15.6,5.43-17.47,5.16-17.55.32.1-6,19.32-4.62,15.68Zm-10.65-2.14-4.44-17.75.28-.06,4.73,20.1,3.86,15.46L310.3,407.7,314,423.21Z" style="fill:#e0e0e0"></path><path d="M273.51,429a41.33,41.33,0,1,1,41.33,41.33A41.38,41.38,0,0,1,273.51,429Zm2,0a39.33,39.33,0,1,0,39.33-39.34A39.38,39.38,0,0,0,275.51,429Z" style="fill:#e0e0e0"></path><path d="M270.81,429a44,44,0,1,1,44,44A44.09,44.09,0,0,1,270.81,429Zm2.66,0a41.37,41.37,0,1,0,41.37-41.37A41.42,41.42,0,0,0,273.47,429Z" style="fill:#263238"></path><path d="M275.45,429.12l0-.64c0-.42,0-1.05.09-1.87a39.42,39.42,0,0,1,15.49-28.74,39.51,39.51,0,0,1,16.53-7.32,39.24,39.24,0,1,1,0,77.13,39,39,0,0,1-16.53-7.32,39.3,39.3,0,0,1-15.49-28.73c-.07-.82-.06-1.45-.09-1.88l0-.63s0,.86.05,2.51a38.11,38.11,0,0,0,1.07,7.13,39.19,39.19,0,0,0,4.33,10.54,39.41,39.41,0,0,0,17.55,15.79,38.49,38.49,0,0,0,9.09,2.88,39.78,39.78,0,0,0,20.79-1.66,39.53,39.53,0,0,0-10.59-76.63,39.08,39.08,0,0,0-10.2.58,38.64,38.64,0,0,0-9.09,2.88,39.05,39.05,0,0,0-7.54,4.53,39.84,39.84,0,0,0-10,11.26,39.19,39.19,0,0,0-4.33,10.54,38.22,38.22,0,0,0-1.07,7.13C275.42,428.25,275.45,429.12,275.45,429.12Z" style="fill:#263238"></path><path d="M184.58,470.21l2.2-18.73,1-17.7-1,17.7,2.07-17.6-2.1,18.17-1.07,18.26Zm12.67-21.16L206,466.51l-.47.23ZM165.6,463l21.3-29.75L165.63,463ZM206.43,443l-14.9-10.64.4-.55,15.22,11.71,14.15,10.11-14.13-10.1,13.77,10.59Zm-9.18,6L190,433.58l7.77,16.56Zm-28.63-9.37-16.37,7.16L169,439.48l16.14-8.61.64,1.31-17.16,7.5-15.76,8.41Zm41.57-7.13-17.59-2.07,17.59,2.07-17.44-3.08,18,3.15,18.17,2.14-.16,1.07Zm-62-4,36.59,0H148.16Zm44.36-2,19.36-5.69,15.66-4.9L212,420.84,227.54,416,212,420.84l15.66-4.6-17.44,5.16-17.57,5.49Zm17.56-5.13.1,0Zm-42.28-1L150.34,415l.35-1,17.68,6.64,16.9,5.28-16.9-5.28L185,426.83Zm5.8-9.77L160.94,398l12.66,12.65L162,397,173.88,411l12.94,12.94-1.15,1.05ZM191,424.09l14-13,12.36-12.36L205,411.12l12.83-11.84L204.45,411.7l-12.94,12.95Zm-7.31-18.55.57,2.29,3.65,15.51Zm11.2.27-.55,1.87-4.88,15.6Zm-15.64-18,.28-.06,4.73,20.1Zm20.8.47.33.1-6,19.32Z" style="fill:#e0e0e0"></path><path d="M147.45,429.12a41.33,41.33,0,1,1,41.33,41.33A41.38,41.38,0,0,1,147.45,429.12Zm2,0a39.34,39.34,0,1,0,39.33-39.34A39.37,39.37,0,0,0,149.45,429.12Z" style="fill:#e0e0e0"></path><path d="M144.75,429.12a44,44,0,1,1,44,44A44.08,44.08,0,0,1,144.75,429.12Zm2.66,0a41.37,41.37,0,1,0,41.37-41.37A41.42,41.42,0,0,0,147.41,429.12Z" style="fill:#263238"></path><path d="M149.39,429.25s0-.22,0-.64,0-1.05.09-1.87a40,40,0,0,1,1.14-7.1A39.16,39.16,0,0,1,155,409.16,39.76,39.76,0,0,1,165,398a39.32,39.32,0,0,1,16.54-7.33,39.24,39.24,0,1,1,0,77.13A39,39,0,0,1,165,460.49a39.79,39.79,0,0,1-10-11.16,39.24,39.24,0,0,1-4.36-10.47,40.15,40.15,0,0,1-1.14-7.1c-.07-.82-.06-1.45-.09-1.87s0-.64,0-.64,0,.86.05,2.51a38.73,38.73,0,0,0,5.4,17.67,39.71,39.71,0,0,0,10,11.26,39.05,39.05,0,0,0,7.54,4.53,38.64,38.64,0,0,0,9.09,2.88,39.78,39.78,0,0,0,20.79-1.66,39.55,39.55,0,0,0-20.79-76.05,39.56,39.56,0,0,0-16.63,7.41,39.84,39.84,0,0,0-10,11.26,38.73,38.73,0,0,0-5.4,17.67C149.36,428.38,149.39,429.25,149.39,429.25Z" style="fill:#263238"></path><path d="M309,356.11s7-5.23,7-7.4.6-4.1,2.46-3,3.16,3.17,1.59,6.53l-7,7.63h-8.86Z" style="fill:#263238"></path><path d="M326.52,364.74a7.63,7.63,0,0,1-3.27-2,7.32,7.32,0,0,1-1.37-4.21c-.23-2-.95-5.19-3.46-5.4a1.34,1.34,0,0,1-1.28-1.31,1.31,1.31,0,0,1,1.31-1.27c2.89.25,4.81,2.58,5.54,5.24.38,1.41.33,2.9.71,4.3.33,1.22,1.41,1.72,2.51,2.14a1.32,1.32,0,0,1,.89,1.58,1.29,1.29,0,0,1-1.58.9Z" style="fill:#263238"></path><polygon points="228.18 376.12 222.83 352.5 218.65 352.5 223.74 377.42 228.18 376.12" style="fill:#e0e0e0"></polygon><path d="M317.76,429.48,297,374.66l4.14-5.46-4.76-3.5-4.87,5.8-64.88,1.93-4,.49s-22.87,37.19-26.9,42.25c-4.3,5.4-9.32,12.12-9.32,12.12l4.17,2.72s11.37-13.89,17-23.28,16.42-26.9,16.42-26.9l14.73,57.94,5.21-.89-13.56-59.09,57.76-1.37-46.31,52,2.11,8.47,48.71-56.32L312.58,431Z" style="fill:#455a64"></path><polygon points="239.47 433.53 191.01 427.29 190.19 430.94 239.47 438.77 239.47 433.53" style="fill:#455a64"></polygon><path d="M235.22,352.05a1.49,1.49,0,0,0,.85-2.68,6.43,6.43,0,0,0-3.77-1.19c-4.79-.16-31.41,0-31.41,0s-1,1.39.89,2.93,7,3.08,9.74,3.08,10.55-1.28,14.77-1.69C228.89,352.24,232.69,352.11,235.22,352.05Z" style="fill:#455a64"></path><path d="M306.47,377.82a11,11,0,0,0,7.38-3.89,7.51,7.51,0,0,0,1.23-7.43c-1.08-2.59-3.51-3.67-6.18-3.85-3.42-.24-6.91,0-10.33.11q-6.1.17-12.21.49c-2.21.11-2.2-3.32,0-3.43q6.27-.33,12.54-.5c2-.06,4.07-.1,6.11-.13a33.08,33.08,0,0,1,5.63.23,9.65,9.65,0,0,1,7.75,6.17,10.73,10.73,0,0,1-1.43,9.86,14.54,14.54,0,0,1-10.49,5.8,1.72,1.72,0,0,1-1.71-1.71,1.76,1.76,0,0,1,1.71-1.72Z" style="fill:#e0e0e0"></path><polygon points="228.18 374.24 227.3 370.36 221.89 370.36 222.71 374.8 227.71 375.92 228.18 374.24" style="fill:#455a64"></polygon><polygon points="286.02 371.66 283.63 374.41 254.06 375.16 255.97 372.55 286.02 371.66" style="fill:#e0e0e0"></polygon><polygon points="281.62 384.86 283.09 392.74 279.22 397.22 277.73 389.24 281.62 384.86" style="fill:#e0e0e0"></polygon><polygon points="276.01 391.17 277.55 399.15 273.68 403.62 272.15 395.49 276.01 391.17" style="fill:#263238"></polygon><circle cx="188.78" cy="429.57" r="4.37" style="fill:#e0e0e0"></circle><path d="M184.41,429.57s0-.39.21-1.05a4.32,4.32,0,0,1,1.6-2.32,4.23,4.23,0,0,1,4-.58,4.16,4.16,0,0,1,1.95,1.47,4.2,4.2,0,0,1,0,5,4.23,4.23,0,0,1-5.94.89,4.35,4.35,0,0,1-1.6-2.32c-.18-.66-.17-1.05-.21-1.05a.9.9,0,0,0,0,.28,4.09,4.09,0,0,0,.09.8,4.37,4.37,0,0,0,1.58,2.49,4.51,4.51,0,0,0,4.27.69,4.43,4.43,0,0,0,2.11-1.58,4.5,4.5,0,0,0,0-5.37,4.49,4.49,0,0,0-6.38-.88,4.34,4.34,0,0,0-1.58,2.49,4,4,0,0,0-.09.8A.9.9,0,0,0,184.41,429.57Z" style="fill:#263238"></path><circle cx="314.86" cy="428.99" r="4.37" style="fill:#e0e0e0"></circle><path d="M310.49,429s0-.39.21-1.05a4.37,4.37,0,0,1,1.6-2.33,4.26,4.26,0,0,1,4-.57,4.16,4.16,0,0,1,1.95,1.47,4.19,4.19,0,0,1,0,4.95,4.16,4.16,0,0,1-1.95,1.47,4.23,4.23,0,0,1-4-.57,4.37,4.37,0,0,1-1.6-2.33c-.18-.66-.17-1-.21-1a.84.84,0,0,0,0,.28,4.17,4.17,0,0,0,.09.8,4.37,4.37,0,0,0,1.58,2.49,4.5,4.5,0,0,0,6.38-.89,4.5,4.5,0,0,0,0-5.37,4.5,4.5,0,0,0-6.38-.89,4.37,4.37,0,0,0-1.58,2.49,4.17,4.17,0,0,0-.09.8A.94.94,0,0,0,310.49,429Z" style="fill:#263238"></path><rect x="232.94" y="456.64" width="13.05" height="4.67" transform="translate(289.44 974.24) rotate(-157.99)" style="fill:#263238"></rect><path d="M232.54,458.7h0l1.76-4.34v0l12.12,4.9h0l-1.75,4.35h0Zm1.76-4.32-1.74,4.3,12.07,4.88,1.74-4.3Z" style="fill:#455a64"></path><path d="M239.62,459h0a2.23,2.23,0,0,0,2-2.41l-1.53-17.78a2.24,2.24,0,0,0-2.41-2h0a2.23,2.23,0,0,0-2,2.41l1.53,17.78A2.24,2.24,0,0,0,239.62,459Z" style="fill:#263238"></path><path d="M239.62,459s-.17,0-.5,0a2.2,2.2,0,0,1-1.73-1.52,6.1,6.1,0,0,1-.14-1.21c-.07-.9-.15-1.91-.24-3-.18-2.26-.4-4.92-.64-7.87q-.18-2.24-.39-4.65c0-.4-.07-.81-.1-1.22a2.33,2.33,0,0,1,.09-1.15,2,2,0,0,1,3.71-.32,2.45,2.45,0,0,1,.29,1.12c0,.41.07.81.1,1.22.14,1.61.28,3.16.41,4.64.27,2.95.51,5.61.72,7.87.1,1.11.2,2.12.29,3a6.58,6.58,0,0,1,.06,1.22,2.18,2.18,0,0,1-1.45,1.79c-.3.11-.48.12-.48.14a1.52,1.52,0,0,0,.51-.07,2.24,2.24,0,0,0,1.59-1.83,6,6,0,0,0,0-1.26c-.06-.9-.14-1.91-.23-3-.18-2.25-.4-4.91-.64-7.87-.12-1.48-.25-3-.39-4.64,0-.41-.07-.81-.1-1.22a2.83,2.83,0,0,0-.33-1.27,2.4,2.4,0,0,0-4.35.38,2.66,2.66,0,0,0-.11,1.3c0,.41.07.82.1,1.22.15,1.61.28,3.16.42,4.64.26,3,.51,5.62.71,7.87.11,1.11.2,2.12.29,3a6,6,0,0,0,.18,1.24,2.29,2.29,0,0,0,.57.91,2.25,2.25,0,0,0,1.31.63A1.52,1.52,0,0,0,239.62,459Z" style="fill:#455a64"></path><circle cx="241.38" cy="437.93" r="11.66" transform="translate(-238.97 298.95) rotate(-45)" style="fill:#e0e0e0"></circle><rect x="234.7" y="416.01" width="13.05" height="4.67" transform="translate(215.73 -63.89) rotate(26.94)" style="fill:#263238"></rect><path d="M234.34,417.48h0l2.13-4.17v0l11.65,5.92h0L246,423.39h0Zm2.13-4.15-2.1,4.13,11.6,5.9,2.1-4.14Z" style="fill:#455a64"></path><path d="M234.56,437.87a6.66,6.66,0,1,0,6.66-6.66A6.66,6.66,0,0,0,234.56,437.87Z" style="fill:#263238"></path><path d="M241.06,418.34h0a2.22,2.22,0,0,0-2.22,2.23v17.84a2.22,2.22,0,0,0,2.22,2.23h0a2.23,2.23,0,0,0,2.23-2.23V420.57A2.23,2.23,0,0,0,241.06,418.34Z" style="fill:#263238"></path><path d="M241.06,418.34s.18,0,.5.09a2.31,2.31,0,0,1,1.16.76,2.16,2.16,0,0,1,.43.9,6.84,6.84,0,0,1,0,1.22c0,.9,0,1.92,0,3,0,2.26,0,4.93,0,7.89,0,1.49,0,3.05,0,4.66v1.23a2.41,2.41,0,0,1-.19,1.14,2,2,0,0,1-1.86,1.19,2.07,2.07,0,0,1-1.86-1.19,2.41,2.41,0,0,1-.19-1.14V436.9c0-1.61,0-3.17,0-4.66,0-3,0-5.63,0-7.89,0-1.12,0-2.14,0-3a5.37,5.37,0,0,1,0-1.22,2,2,0,0,1,.43-.9,2.24,2.24,0,0,1,1.16-.76c.32-.08.49-.07.49-.09a1.36,1.36,0,0,0-.5,0,2.23,2.23,0,0,0-1.26.74,2.38,2.38,0,0,0-.49.95,5.78,5.78,0,0,0-.07,1.26c0,.9,0,1.92,0,3,0,2.26,0,4.93,0,7.89,0,1.49,0,3.05,0,4.66v1.23a2.75,2.75,0,0,0,.22,1.28,2.4,2.4,0,0,0,4.37,0,2.78,2.78,0,0,0,.22-1.28V436.9c0-1.61,0-3.17,0-4.66,0-3,0-5.63,0-7.89,0-1.12,0-2.14,0-3a6.48,6.48,0,0,0-.07-1.26,2.38,2.38,0,0,0-.49-.95,2.23,2.23,0,0,0-1.26-.74A1.42,1.42,0,0,0,241.06,418.34Z" style="fill:#455a64"></path><path d="M247.62,347.55s1.51,35,1.36,41.36-7,50.85-7,50.85L230.3,440s-.84-27-1.4-34.77.15-14.79,0-17.36-5.81-28.24-6.9-32.76-1.4-6-2.61-8.45-3.71-9.4-3.92-11.95c-.8-9.82,3.34-15.92,3.34-15.92l22.92,16.7Z" style="fill:#263238"></path><polygon points="242.24 441.1 243.97 426.57 229.2 427.29 229.89 441.26 234.37 445.89 240.97 444.68 242.24 441.1" style="fill:#263238"></polygon><path d="M255.26,457.05a29.26,29.26,0,0,1-9.06,0A105.6,105.6,0,0,1,234,453.34c-2.19-.77-8.81-.73-9-3.07S229.9,440,229.9,440s.77,2.61,3.06,2.78a42.65,42.65,0,0,0,6.84-.5s2.25-2.76,3.57-2.72.46,3.69.46,3.69,2.68,4.82,4.76,6,2.09,1.89,4.63,2.25a6.87,6.87,0,0,1,3.66,1.43s.94,2.23.25,2.91A6.82,6.82,0,0,1,255.26,457.05Z" style="fill:#455a64"></path><path d="M257.17,455.82a5.1,5.1,0,0,1-1.91,1.26,29.11,29.11,0,0,1-9.06,0A107.36,107.36,0,0,1,234,453.37c-2.18-.76-8.81-.72-9-3.07a3.88,3.88,0,0,1,.32-1.91s6.42,2.55,9.62,2.86,9.77,3.33,13.38,3.72a44,44,0,0,0,7.78,0l1.26-.5C257.41,455,257.54,455.37,257.17,455.82Z" style="fill:#e0e0e0"></path><path d="M247.85,448.55a8.09,8.09,0,0,1-.57,1.13c-.41.57-.92.85-.89.91a1.74,1.74,0,0,0,1.06-.78A1.69,1.69,0,0,0,247.85,448.55Z" style="fill:#fff"></path><path d="M246,446.46a7.52,7.52,0,0,1-.78,1.3,8.15,8.15,0,0,1-1.17,1,2.26,2.26,0,0,0,1.33-.84A2.14,2.14,0,0,0,246,446.46Z" style="fill:#fff"></path><path d="M244.7,444.53s-.4.41-.93.86-1,.74-1,.79a3.21,3.21,0,0,0,1.93-1.65Z" style="fill:#fff"></path><path d="M231.64,447.89a3.71,3.71,0,0,0,.83.26c.53.14,1.26.29,2.07.42s1.56.21,2.1.25a3.41,3.41,0,0,0,.88,0c0-.06-1.32-.2-2.94-.46S231.65,447.83,231.64,447.89Z" style="fill:#fff"></path><path d="M246.41,409.81a2.08,2.08,0,0,0,.07-.36c.05-.27.1-.63.17-1.08.14-1,.33-2.35.57-4.07.48-3.52,1.14-8.48,1.93-14.32h0c0-4.32-.08-9.16-.25-14.27-.32-9.47-.75-18-.92-24.23-.08-3.08-.14-5.58-.18-7.34,0-.85,0-1.51-.05-2,0-.21,0-.38,0-.52s0-.17,0-.17a1.15,1.15,0,0,0,0,.17c0,.14,0,.31,0,.52,0,.49,0,1.16,0,2,0,1.74,0,4.25.07,7.35.11,6.21.49,14.77.81,24.23.17,5.11.27,9.95.28,14.26v0c-.74,5.86-1.36,10.82-1.8,14.34-.21,1.73-.37,3.11-.48,4.08l-.12,1.09A2.06,2.06,0,0,0,246.41,409.81Z" style="fill:#455a64"></path><path d="M310.06,287.05a28.6,28.6,0,0,0-3.3-3.49c-3.37-3.68-3.93-9.25-2.79-14.12l-27.66-8.39c-9.13,11.5.19,21.5,1.73,25.16,1.33,3.18,3.47,7.55,4.86,10.7s4.43,5.81,7.89,5.79c2.8,0,5.29-1.7,7.54-3.38A5,5,0,0,0,307.2,298a5.75,5.75,0,0,1,.61-1.7,5,5,0,0,1,1-.94A6.56,6.56,0,0,0,310.06,287.05Z" style="fill:#263238"></path><path d="M287.59,247.71a9.16,9.16,0,0,1,2.6-1.05,3.14,3.14,0,0,1,2.64.62,1.32,1.32,0,0,1,.48,1.17.7.7,0,0,1-1,.48l-.12,0c-1.29.22-2.58.42-3.88.59a2.49,2.49,0,0,1-1,0,.9.9,0,0,1-.68-.65C286.55,248.37,287.11,248,287.59,247.71Z" style="fill:#FF725E"></path><path d="M284.33,249.47a16.5,16.5,0,0,1,14.22,1.29c2.5,1.48,3.21,2.63,4.69,4.2a9.23,9.23,0,0,1,2.64,5.69,15.47,15.47,0,0,1-1.12,7.54,22.14,22.14,0,0,1-4.19,6,29.12,29.12,0,0,1-7.87,5.3l-4.08-1.88a42.08,42.08,0,0,1-9.11-6.31c-2.63-2.61-4.59-6.1-4.58-9.81C275,256.37,279.47,251.16,284.33,249.47Z" style="fill:#263238"></path><path d="M289.43,252.56l9.48,1.67,1.84,1.45c4.47,2.77,4.51,9.61,2.31,13.25-2.45,4-5.59,8.89-8.06,11.46-5,5.17-10.36,2.53-10.36,2.53s-1.85,3.25-3.05,5.27l-11.13-8,15.7-26.81A2.49,2.49,0,0,1,289.43,252.56Z" style="fill:#ae7461"></path><path d="M286.91,273.48a1.48,1.48,0,0,1,.92-.51,1.51,1.51,0,0,1,1.63.88,2,2,0,0,1-.34,2h0a1.88,1.88,0,0,1-1.54,0l-.21-.13a1.67,1.67,0,0,1-.73-1A1.51,1.51,0,0,1,286.91,273.48Z" style="fill:#6f4439"></path><path d="M297.91,272.78a.9.9,0,0,1-1.24.25.86.86,0,0,1-.31-1.2.91.91,0,0,1,1.24-.26A.87.87,0,0,1,297.91,272.78Z" style="fill:#263238"></path><path d="M300.46,270.1c-.16,0-.44-.78-1.24-1.33s-1.67-.56-1.69-.72.2-.19.59-.19a2.42,2.42,0,0,1,1.44.45,2.45,2.45,0,0,1,.9,1.18C300.57,269.85,300.53,270.09,300.46,270.1Z" style="fill:#263238"></path><path d="M291.11,273.33a6.25,6.25,0,0,1,1.46.67c.22.12.45.21.58.1a1.27,1.27,0,0,0,.28-.71q.22-.94.48-2a33.08,33.08,0,0,1,1.47-5,31.59,31.59,0,0,1-1.06,5.13c-.18.69-.35,1.34-.51,2a1.39,1.39,0,0,1-.45.88.67.67,0,0,1-.55.07,1.91,1.91,0,0,1-.38-.2A6.86,6.86,0,0,1,291.11,273.33Z" style="fill:#263238"></path><path d="M284.66,282.92a18,18,0,0,1-6.35-7.48s-.72,5.47,5.48,9Z" style="fill:#6f4439"></path><path d="M288.36,272.24c.14.09-.47,1-.15,2.09s1.31,1.69,1.23,1.81-.32,0-.72-.23a2.67,2.67,0,0,1-1.06-1.46,2.27,2.27,0,0,1,.18-1.72C288.06,272.34,288.31,272.2,288.36,272.24Z" style="fill:#263238"></path><path d="M302,267c-.27.1-.8-.46-1.56-.9s-1.48-.66-1.52-.95c0-.13.2-.27.59-.29a2.62,2.62,0,0,1,1.45.4,2.73,2.73,0,0,1,1,1.08C302.11,266.71,302.09,267,302,267Z" style="fill:#263238"></path><path d="M289,267a.91.91,0,0,0,.25,1.24.86.86,0,0,0,1.22-.18.9.9,0,0,0-.24-1.25A.87.87,0,0,0,289,267Z" style="fill:#263238"></path><path d="M289.42,262.86c0,.16.88.1,1.7.63s1.16,1.32,1.32,1.28.09-.26-.05-.62a2.54,2.54,0,0,0-1-1.15,2.44,2.44,0,0,0-1.43-.38C289.6,262.66,289.4,262.78,289.42,262.86Z" style="fill:#263238"></path><path d="M291.55,260.5c.05.29.81.51,1.57,1s1.33,1,1.61.92c.12-.05.14-.3,0-.66a2.94,2.94,0,0,0-2.55-1.54C291.75,260.23,291.54,260.37,291.55,260.5Z" style="fill:#263238"></path><path d="M281,264.12c.3-.43.51-1.8.12-2.17-1-1-3.14-2.31-5.17.58-2.78,4,1.76,5.92,1.85,5.82S279.93,265.62,281,264.12Z" style="fill:#ae7461"></path><path d="M277.69,266.14s-.1,0-.25,0a.89.89,0,0,1-.53-.35,2.08,2.08,0,0,1,.29-2.08,2.66,2.66,0,0,1,.89-.85,1,1,0,0,1,.89-.17.43.43,0,0,1,.27.48c0,.15-.11.21-.09.23s.13,0,.21-.19a.54.54,0,0,0,0-.36.65.65,0,0,0-.31-.37,1.2,1.2,0,0,0-1.15.11,2.87,2.87,0,0,0-1,.93,2.2,2.2,0,0,0-.2,2.41.9.9,0,0,0,.71.34C277.62,266.23,277.7,266.15,277.69,266.14Z" style="fill:#6f4439"></path><path d="M280.92,261.86l.38,1.72c7.15-1.53,22.59-6.9,21.7-6.56a15.35,15.35,0,0,0-6-4.66c-3.7-1.49-11.07-3.72-13.41.28A24.24,24.24,0,0,0,280.92,261.86Z" style="fill:#263238"></path><path d="M286,244.39s-2.49.52-2.68,1.31c-.14.57,10.91,3.83,10.91,3.83l.09-2.22L291,244.88Z" style="fill:#FF725E"></path><g style="opacity:0.30000000000000004"><path d="M286,244.39s-2.49.52-2.68,1.31c-.14.57,10.91,3.83,10.91,3.83l.09-2.22L291,244.88Z"></path></g><path d="M276.91,255.08c-1.14-4.3,2.45-5.38,3.72-7.85l27.84,22.1s-3.38,1.19-5.68,0l1-1.67s-14-11.85-19.16-12.54l-2.29-.4Z" style="fill:#455a64"></path><path d="M285.83,253.46s-5.92,6.86-9,13.13c-3.19,6.5,2.6,13,2.6,13s-3.57-8.31.63-14.21c3.81-5.35,7.8-10.34,7.8-10.34Z" style="fill:#455a64"></path><path d="M290.9,240.24s-1.09.18-.89,1.59l.24,1.71a22.73,22.73,0,0,0-4.49.93s4.82,1.15,7,3.84a.24.24,0,0,1-.29.37c-2.06-1-7.51-3.45-9-3.23a3.91,3.91,0,0,0-2.12.9c-1.57,1.42-4.84,4.17-4.64,5.65l.05,2.38,7.39-.31a6,6,0,0,1,4.34,1.16c2.85,2.13,8.56,5.67,9.78,6.65,1,.81,8.16,7.36,9.84,7.43s3.39.31,3.17-1.21-1.58-9-4.25-14.07a24.35,24.35,0,0,0-6.56-7.83s-8.32-6.29-9.55-6" style="fill:#FF725E"></path><path d="M300.29,251a7.83,7.83,0,0,0-1.15-1.5,23.74,23.74,0,0,0-7.25-5.48,7.64,7.64,0,0,0-1.76-.69,14.85,14.85,0,0,0,1.64.91,32.34,32.34,0,0,1,3.8,2.45,33.35,33.35,0,0,1,3.39,3A13.13,13.13,0,0,0,300.29,251Z" style="fill:#263238"></path><g style="opacity:0.30000000000000004"><path d="M294.31,250.35a.65.65,0,0,1,.46-.39,2.79,2.79,0,0,1,.81-.12,2.18,2.18,0,0,1,1.63,1.3c.3.71-.7,1.22-1.26,1.06a2.73,2.73,0,0,1-1.36-1A.94.94,0,0,1,294.31,250.35Z"></path></g><g style="opacity:0.30000000000000004"><path d="M300.06,254.55a.93.93,0,0,1,.48.23,10,10,0,0,1,2.73,3.5,33.84,33.84,0,0,1,1.87,4.39,23.62,23.62,0,0,1-5.41-7.6.45.45,0,0,1-.07-.25A.36.36,0,0,1,300.06,254.55Z"></path></g><g style="opacity:0.30000000000000004"><path d="M305.4,254a.9.9,0,0,1,.38.37,9.85,9.85,0,0,1,1.48,4.2,30.41,30.41,0,0,1,.18,4.48,22,22,0,0,1-2.52-8.65.46.46,0,0,1,0-.26A.35.35,0,0,1,305.4,254Z"></path></g><path d="M284.83,245.51a12.28,12.28,0,0,0,1.91.91c1.2.52,2.87,1.22,4.71,2l1.36.55a.4.4,0,0,0,.5-.22.39.39,0,0,0,0-.3l-.07-.12-.06-.06c-.16-.17-.31-.33-.47-.48a9.14,9.14,0,0,0-1.88-1.38,7.86,7.86,0,0,0-1.43-.62,1.57,1.57,0,0,0-.56-.12c0,.06.77.28,1.87,1a9.29,9.29,0,0,1,1.77,1.39c.15.15.3.3.45.47s.06.08.06.12,0,.05-.07,0l-1.34-.55c-1.85-.75-3.53-1.41-4.75-1.87A13.78,13.78,0,0,0,284.83,245.51Z" style="fill:#263238"></path><path d="M222.21,356.5a61.49,61.49,0,0,1-2.33-7c-.33-.93-1.35-.91-2.24-1l-2.35-.22a9.34,9.34,0,0,1-2.16-.33,9.32,9.32,0,0,1,2.18,0l2.36.11a7.56,7.56,0,0,1,1.43.15,1.85,1.85,0,0,1,1.25,1.09c.68,2,1.09,3.78,1.44,5.09A9.34,9.34,0,0,1,222.21,356.5Z" style="fill:#263238"></path><path d="M280.31,287.63c.11.31-4.71,25.42-6.17,28.45-3.56,7.37-15.1,5.47-15.1,5.47a40.53,40.53,0,0,0-11.21,7.68s-8.78-5.65-11.12-6.34-4.47-4.46-10.8-2.83c-4.79,1.23-7.8,2.3-7.8,2.3s-.52-6.07,10.33-18.93,21.64-22.48,30.72-25.71l9.09-3.22Z" style="fill:#455a64"></path><path d="M247.11,293.94s7.55,7.76,14.52,7.13A38.84,38.84,0,0,0,274.94,297l2,6.41s-10.17,2.45-15.53,2.83-18.32-6.29-18.32-6.29Z" style="fill:#263238"></path><path d="M265.62,272.18a13.24,13.24,0,0,1,6.75,4.33,64.61,64.61,0,0,1,5.58,8.77s-4.83-4.76-11.21-4-8.08,3.66-10.5,6.36S243.36,303,243.36,303l16.56,19.6L251,329.44,233.38,314l-14.56,8,15.52-19.66,26.42-27.87Z" style="fill:#263238"></path><path d="M203.47,288.43a116.2,116.2,0,0,1,23.79-19.3c.32.44.88,1.52,1.2,2-8,6.78-16.41,12.73-24.21,19.79" style="fill:#263238"></path><rect x="227.3" y="268.14" width="3.23" height="2.61" transform="translate(-104.05 150.56) rotate(-30)" style="fill:#e0e0e0"></rect><path d="M177.51,308.84c.16,1.36.33,2.71.5,4.07a30.26,30.26,0,0,0,13.41-6.06l2.85-6.8A26.8,26.8,0,0,1,177.51,308.84Z" style="fill:#263238"></path><path d="M206.49,289.11a6.67,6.67,0,0,0-6.12-.27,17.36,17.36,0,0,0-5.12,3.74c-2.64,2.55-5.19,5.36-6.45,8.8s0,7.87,2.55,10.53l8.74-4Z" style="fill:#455a64"></path><g style="opacity:0.30000000000000004"><path d="M193.54,294.3c.11-.11,4.26,2.63,4.26,2.63l-5.26,16.57s-2.85-3.09-3.69-5.88a9.12,9.12,0,0,1,.41-7.34A22.11,22.11,0,0,1,193.54,294.3Z"></path></g><path d="M265.62,272.18s-5.74-10.44-10-14.05-21.31-1.71-24.11,3.53c-2.94,5.52-2.09,9.34-2.09,9.34s-26.29,18.41-31.74,26.64c-5.86,8.84-6.38,12.86-6.34,14.89.13,6.55,7.68,11.47,14.79,13.36s11.06-2.29,11.06-2.29,20.66-22.72,24.6-27.3S265.62,272.18,265.62,272.18Z" style="fill:#455a64"></path><rect x="240.16" y="270.76" width="12.93" height="11.58" rx="5.3" transform="translate(275 -92.9) rotate(46.12)" style="fill:#FF725E"></rect><path d="M239.29,272.55c-.26.4-13.35,12.18-15.85,16-1.66,2.52-3.35,4.74-.16,8.29a37.2,37.2,0,0,0,3.82,3.63,4.71,4.71,0,0,0,6.19-.16c4.93-4.55,14.68-13.62,16.91-16.39Z" style="fill:#263238"></path><rect x="249.35" y="270.28" width="4.59" height="3.51" transform="translate(273.29 -97.92) rotate(46.12)" style="fill:#FF725E"></rect><rect x="249.94" y="269.04" width="6.17" height="3.15" transform="translate(272.7 -99.34) rotate(46.12)" style="fill:#e0e0e0"></rect><path d="M239.29,272.55s.32.23.84.73,1.25,1.22,2.16,2.12c1.8,1.81,4.27,4.33,7,7.14.41.42.81.85,1.19,1.25l.18.18-.18.18c-2.53,2.42-4.78,4.54-6.41,6.05L242.1,292a4.32,4.32,0,0,1-.75.6s.19-.28.62-.73L243.8,290c1.57-1.58,3.78-3.74,6.29-6.17v.36l-1.2-1.24c-2.7-2.81-5.12-5.37-6.86-7.25-.87-.93-1.56-1.7-2-2.23A4.6,4.6,0,0,1,239.29,272.55Z" style="fill:#455a64"></path><path d="M252.76,274.59s0,0,.08,0l-.08.07a10.3,10.3,0,0,1-1.92-1.7c-1-1.05-1.73-2-1.63-2.07s1,.66,2,1.7a10.42,10.42,0,0,1,1.63,2l-.08.07A.11.11,0,0,1,252.76,274.59Z" style="fill:#263238"></path><path d="M253.75,273.65s0,0,.07,0l-.07.07a9.85,9.85,0,0,1-1.93-1.7,6.92,6.92,0,0,1-1.63-2.07c.11-.1,1,.66,2,1.71a10,10,0,0,1,1.62,2l-.07.07S253.73,273.66,253.75,273.65Z" style="fill:#263238"></path><g style="opacity:0.30000000000000004"><path d="M231.53,261.66s9.06,4.44,9.06,4.44L229.44,271S228.66,267,231.53,261.66Z"></path></g><g style="opacity:0.30000000000000004"><path d="M207.4,294.3s-12.41,13.12-10,19.82,11.38,9.71,15.47,8,11.72-12,11.72-12Z"></path></g><path d="M240.62,266a24.78,24.78,0,0,1-4.67-1.92,25.05,25.05,0,0,1-4.45-2.38,23.76,23.76,0,0,1,4.67,1.91A24.69,24.69,0,0,1,240.62,266Z" style="fill:#263238"></path><path d="M255.07,258c0,.08-1,.38-2.63,1a29.43,29.43,0,0,1-6.52,2.17,9.19,9.19,0,0,1-3.83-.18,9.56,9.56,0,0,1-2.81-1.39,18.35,18.35,0,0,1-1.63-1.3c-.36-.32-.55-.52-.53-.55s.91.61,2.36,1.54a10.48,10.48,0,0,0,2.73,1.24,9.3,9.3,0,0,0,3.63.12,37.53,37.53,0,0,0,6.47-2A9.87,9.87,0,0,1,255.07,258Z" style="fill:#263238"></path><path d="M224.56,313.23s4.33,1.08,8.26,1.83c2.42.46,4.87,1.51,7.21.75a12.62,12.62,0,0,0,4.53-3.2,3.81,3.81,0,0,0,1.17-5.64c-1.5-2.89-4.49-8.65-6-11.54" style="fill:#455a64"></path><path d="M239.75,295.43a11.57,11.57,0,0,1,.83,1.38l2.08,3.85,3,5.73a16.18,16.18,0,0,1,.83,1.72,3.27,3.27,0,0,1,.11,2.08,8.74,8.74,0,0,1-2.61,3.29,11.7,11.7,0,0,1-3.44,2.39,6.83,6.83,0,0,1-3.9.31c-1.22-.22-2.33-.57-3.38-.8l-2.95-.68-4.25-1a9.12,9.12,0,0,1-1.55-.45,10.79,10.79,0,0,1,1.59.25l4.29.86,3,.62c1.07.22,2.19.55,3.37.74a6.38,6.38,0,0,0,3.63-.3,11.36,11.36,0,0,0,3.27-2.31,8.31,8.31,0,0,0,2.48-3c.39-1.19-.34-2.35-.88-3.43l-2.93-5.78c-.79-1.6-1.44-2.92-1.94-3.92A9.66,9.66,0,0,1,239.75,295.43Z" style="fill:#263238"></path><path d="M239.22,266.86a9.07,9.07,0,0,1-1,1.18c-.7.73-1.73,1.77-3,3-2.62,2.48-6.4,5.76-10.73,9.16-2.16,1.71-4.25,3.3-6.16,4.74l-2.71,2a20.55,20.55,0,0,1-2.47,1.66,6.27,6.27,0,0,1-4.21.79,5.38,5.38,0,0,1-1.13-.34,1.52,1.52,0,0,1-.36-.2s.53.21,1.52.33a6.19,6.19,0,0,0,4-.9c1.52-.9,3.16-2.33,5.07-3.75l6.13-4.76c4.32-3.4,8.12-6.62,10.8-9l3.14-2.89A9.07,9.07,0,0,1,239.22,266.86Z" style="fill:#263238"></path><path d="M257.8,260.24a15,15,0,0,1-2.53,1l-6.18,2.07-6.17,2.12a14.31,14.31,0,0,1-2.59.78,13.59,13.59,0,0,1,2.46-1.13c1.55-.63,3.71-1.44,6.13-2.26s4.63-1.49,6.24-1.94A13.32,13.32,0,0,1,257.8,260.24Z" style="fill:#263238"></path><path d="M206.1,289.36c.05.08-1.28,1-3.22,2.76a40.48,40.48,0,0,0-6.61,7.72,29.68,29.68,0,0,0-4.14,9.23c-.61,2.54-.57,4.18-.68,4.17a4.61,4.61,0,0,1,0-1.14,10,10,0,0,1,.09-1.34c0-.27.06-.55.1-.84s.12-.6.18-.93a27.43,27.43,0,0,1,4.06-9.44,36.38,36.38,0,0,1,6.81-7.7,28.14,28.14,0,0,1,2.47-1.9A4.82,4.82,0,0,1,206.1,289.36Z" style="fill:#263238"></path><path d="M221.82,313.35c0,.14-5.51-.6-12.26-1.66s-12.19-2-12.17-2.17,5.51.6,12.26,1.66S221.84,313.21,221.82,313.35Z" style="fill:#263238"></path><path d="M213.16,321.84a3.62,3.62,0,0,1-.57-.82c-.34-.55-.8-1.36-1.34-2.38a69.45,69.45,0,0,1-3.65-8.21,70.53,70.53,0,0,1-2.58-8.62c-.25-1.12-.43-2-.53-2.67a4.33,4.33,0,0,1-.11-1c.08,0,.4,1.37,1,3.58s1.5,5.25,2.71,8.53,2.5,6.16,3.49,8.23S213.23,321.81,213.16,321.84Z" style="fill:#263238"></path><path d="M222.16,312.84c-.09.1-3.93-3.39-8.57-7.8s-8.32-8.08-8.22-8.18,3.94,3.39,8.58,7.8S222.26,312.73,222.16,312.84Z" style="fill:#263238"></path><path d="M222.8,324.57c-.05.14-1.07-.12-2.31.05s-2.15.66-2.23.53.78-.88,2.17-1A2.9,2.9,0,0,1,222.8,324.57Z" style="fill:#263238"></path><path d="M272.46,284.47s7.68.28,9,6.12,6.35,30.87,7,32.25S310,346.66,310,346.66l-7.24,5.83s-19.36-16.29-24.18-23.26c-5.2-7.53-14.27-35.13-15.06-38.55S266.76,283.37,272.46,284.47Z" style="fill:#ae7461"></path><path d="M285.47,308.71l-15.58,6.13s-7.6-17.47-8.24-21.07.37-11.15,6.48-12.18,11.44,3.4,13.41,10.53S285.47,308.71,285.47,308.71Z" style="fill:#455a64"></path><path d="M285.47,308.71a.67.67,0,0,0,0-.23l-.12-.66-.51-2.54c-.47-2.2-1.16-5.37-2.12-9.28l-.78-3.05a24.81,24.81,0,0,0-1.06-3.27,15,15,0,0,0-4.54-6.14,10.74,10.74,0,0,0-3.82-1.92,10.46,10.46,0,0,0-4.53-.16,7.07,7.07,0,0,0-4,2.28,9.87,9.87,0,0,0-2.12,4.13,14.79,14.79,0,0,0-.5,4.05,12,12,0,0,0,.19,2c.14.66.35,1.28.54,1.9.84,2.47,1.77,4.81,2.66,7.05,1.81,4.47,3.54,8.53,5.07,12l.05.13.13,0,11.39-4.56,3.09-1.25.79-.33.26-.12a1.23,1.23,0,0,0-.29.1l-.83.31-3.14,1.19-11.37,4.41.18.07c-1.5-3.5-3.21-7.57-5-12-.89-2.24-1.81-4.58-2.64-7a12.77,12.77,0,0,1-.22-7.77,9.6,9.6,0,0,1,2-4A6.73,6.73,0,0,1,268,281.8a10,10,0,0,1,4.37.14,10.55,10.55,0,0,1,3.7,1.85,14.89,14.89,0,0,1,4.48,6,24.34,24.34,0,0,1,1.06,3.23l.81,3c1,3.9,1.72,7.06,2.23,9.25l.58,2.52c.06.28.12.49.16.66A.78.78,0,0,0,285.47,308.71Z" style="fill:#263238"></path><path d="M310.88,347.25s4.36.65,4.72.8a44.51,44.51,0,0,1,4.68,4.11c.57.72,1,3.55-.31,4.51l-.8.51s-.25,2.09-1.76,2.33-1.48-.1-1.48-.1.37,1.86-1.3,1.74L313,361s-1.18,1.72-2.25,1.09-5.12-4-5.53-5.24-.74-2.36-.74-2.36l-4.11-2.82,8.19-7.71Z" style="fill:#263238"></path><path d="M278.29,257.27l-.9-2c-1.18,2.35-3.81,4.07-5.73,5.86s-3.81,3.85-4.34,6.42a8.35,8.35,0,0,0,.88,5.49,12.09,12.09,0,0,0,3.77,4.15,2,2,0,0,0,1.3.51,1.53,1.53,0,0,0,1.25-1.15,4,4,0,0,0,.05-1.81C273.28,268.1,275.07,262.85,278.29,257.27Z" style="fill:#263238"></path><path d="M228.55,352.3a36.17,36.17,0,0,0-4.87-9.47c-1.81-2.52-4-4.9-4.82-7.9a12.93,12.93,0,0,1,1.42-9.34,38.73,38.73,0,0,1,5.86-7.66A14.63,14.63,0,0,0,219,321.6c-3.42,3-9.22,9.33-10.39,13.7s.77,11.1,5,12.81c2.33.95,5.2-.76,6.76,1.22.4.5.58,3.71,1.11,5.76s3.23,4.4,5.31,4a3.38,3.38,0,0,0,2.41-2.87A8.25,8.25,0,0,0,228.55,352.3Z" style="fill:#FF725E"></path><path d="M254.08,327.28c-3.62.46-6.72-.73-9.76-2.75s-5.75-4.52-8.92-6.31a14.4,14.4,0,0,0-5.58-1.93c-2-.2-5.08-.27-6.68.91l-5.5,5.8c9.54,1.89,23.1,7.38,32.8,8,1.09.07,2.39-1,3.31-1.58S254.61,328.24,254.08,327.28Z" style="fill:#FF725E"></path><path d="M251.54,328.76a4,4,0,0,0-1.67,3,3,3,0,0,0,1.73,2.84,3.76,3.76,0,0,0,2.64-.07,4.92,4.92,0,0,0,2.54-1.86,3.22,3.22,0,0,0,.31-3.06,3.32,3.32,0,0,0-2.78-1.76,5.46,5.46,0,0,0-3.25,1" style="fill:#FF725E"></path><path d="M250.74,334.07c-1.61,2.87-1.52,6.37-1.07,9.63s1.25,6.54.87,9.81c-.27,2.32-1.11,4.53-1.57,6.82s-.5,4.81.73,6.8q4.25-1.81,8.33-4a3.52,3.52,0,0,0,1.29-1,3.62,3.62,0,0,0,.53-1.9c.45-5,.88-10.17-.86-14.87-.86-2.34-2.23-4.45-3.25-6.72s-2.94-3.77-2.29-6.17" style="fill:#FF725E"></path><path d="M254.86,334s-.17.14-.52.29a5.47,5.47,0,0,1-1.59.46,2.84,2.84,0,0,1-2.4-.73,3.36,3.36,0,0,1-.79-2.95,4.29,4.29,0,0,1,1.59-2.61,4.54,4.54,0,0,1,2.33-.88,3.29,3.29,0,0,1,2.2.4,10,10,0,0,0-2.16,0,4.45,4.45,0,0,0-2.07.9,4,4,0,0,0-1.38,2.32,3,3,0,0,0,.63,2.53,2.55,2.55,0,0,0,2,.7,8.12,8.12,0,0,0,1.55-.29C254.64,334,254.85,334,254.86,334Z" style="fill:#263238"></path><path d="M251.7,339.6a5.54,5.54,0,0,1,.51-5.06,19,19,0,0,1-.35,2.52A19.38,19.38,0,0,1,251.7,339.6Z" style="fill:#263238"></path><path d="M254.46,339.19a5.06,5.06,0,0,1-1.2-2.14,4.88,4.88,0,0,1-.51-2.4,7.3,7.3,0,0,1,1,2.21A7.2,7.2,0,0,1,254.46,339.19Z" style="fill:#263238"></path></g></svg>
